<?xml version="1.0" encoding="utf-8"?>
<!-- Generator: Adobe Illustrator 26.0.0, SVG Export Plug-In . SVG Version: 6.00 Build 0)  -->
<svg version="1.1" id="Layer_1" xmlns="http://www.w3.org/2000/svg" xmlns:xlink="http://www.w3.org/1999/xlink" x="0px" y="0px"
	 viewBox="0 0 49.2 51.4" style="enable-background:new 0 0 49.2 51.4;" xml:space="preserve">

<g id="Group_327" transform="translate(45.311 456.826)">
	<g>
		<g>
			<defs>
				<rect id="SVGID_1_" x="-44.8" y="-456.3" width="48.2" height="50.3"/>
			</defs>
			<clipPath id="SVGID_00000060718178223462158800000008782715796587508352_">
				<use xlink:href="#SVGID_1_"  style="overflow:visible;"/>
			</clipPath>
			<g id="Group_326" style="clip-path:url(#SVGID_00000060718178223462158800000008782715796587508352_);">
				<path id="Path_648" class="st1" d="M-8.3-411.6c-7.6,4.7-17.2,4.7-24.8,0l-3.4,3.4c-0.5,0.5-1,1.1-1.6,1.6
					c-0.8,0.8-2.1,0.9-2.9,0c-0.8-0.8-0.9-2.1,0-2.9c0,0,0.1-0.1,0.1-0.1c1.3-1.4,2.7-2.8,4.1-4.1c0.2-0.1,0.4-0.3,0.6-0.4
					c-5.1-4.7-7.9-11.5-7.4-18.5c0.3-6,3.1-11.6,7.6-15.6c9.7-8.2,24.3-7,32.5,2.7c7.8,9.2,7.2,22.9-1.5,31.4c1.1,1,2.1,2.1,3.2,3.1
					c0.5,0.4,0.9,0.9,1.3,1.3c0.9,0.7,1,2.1,0.3,2.9s-2.1,1-2.9,0.3c-0.1-0.1-0.2-0.2-0.3-0.3C-5.1-408.4-6.7-410-8.3-411.6
					 M-1.9-431.1c0-10.4-8.4-18.9-18.9-18.8c-10.4,0-18.9,8.4-18.8,18.9c0,10.4,8.4,18.9,18.9,18.8C-10.3-412.3-1.8-420.7-1.9-431.1
					"/>
				<path id="Path_649" class="st1" d="M-43.7-441.3c-2.5-5.1-0.4-11.4,4.8-13.9c3.1-1.5,6.8-1.4,9.8,0.4
					C-35.7-452.5-40.9-447.6-43.7-441.3"/>
				<path id="Path_650" class="st1" d="M-12.3-454.8c4.9-2.9,11.3-1.2,14.2,3.7c1.7,3,1.9,6.7,0.4,9.8
					C-0.5-447.6-5.8-452.5-12.3-454.8"/>
				<path id="Path_651" class="st1" d="M-22.8-429v-6.1c0-2.8,0-5.7,0-8.5c0-1.2,0.9-2.1,2.1-2.1c1,0,1.8,0.6,2.1,1.6
					c0.1,0.3,0.1,0.6,0.1,0.9c0,3.1,0,6.3,0,9.4v0.7h3.8c0.5,0,1.1,0,1.6,0c1.1,0,2,1,2,2.1c0,1.1-0.9,2.1-2,2.1
					C-16.4-429-19.6-429.1-22.8-429"/>
			</g>
		</g>
	</g>
</g>
</svg>
