<?xml version="1.0" encoding="utf-8"?>
<!-- Generator: Adobe Illustrator 26.0.0, SVG Export Plug-In . SVG Version: 6.00 Build 0)  -->
<svg version="1.1" id="Layer_1" xmlns="http://www.w3.org/2000/svg" xmlns:xlink="http://www.w3.org/1999/xlink" x="0px" y="0px"
	 viewBox="0 0 48.6 49.9" style="enable-background:new 0 0 48.6 49.9;" xml:space="preserve">

<g id="Group_322" transform="translate(221.311 295.152)">
	<path id="Path_647" class="st0" d="M-218.3-278.8h42.7v30.6h-42.7V-278.8z M-186.9-292.2h3.2v9.1h-3.2V-292.2z M-210.2-292.2h3.2
		v9.1h-3.2V-292.2z M-212.9-294.7v5.2h-7.8v43.9h47.6v-44h-7.9v-5.1h-8.5v5h-14.9v-5L-212.9-294.7L-212.9-294.7z"/>
	<rect id="Rectangle_282" x="-214.3" y="-266.4" class="st0" width="5.9" height="5.9"/>
	<rect id="Rectangle_283" x="-185.3" y="-266.4" class="st0" width="5.8" height="5.9"/>
	<rect id="Rectangle_284" x="-214.4" y="-257.2" class="st0" width="5.9" height="5.8"/>
	<rect id="Rectangle_285" x="-185.3" y="-257.2" class="st0" width="5.8" height="5.9"/>
	<rect id="Rectangle_286" x="-185.3" y="-275.6" class="st0" width="5.9" height="5.8"/>
	<rect id="Rectangle_287" x="-204.6" y="-266.5" class="st0" width="5.8" height="6"/>
	<rect id="Rectangle_288" x="-195" y="-266.4" class="st0" width="5.8" height="5.9"/>
	<rect id="Rectangle_289" x="-204.6" y="-257.3" class="st0" width="5.9" height="5.8"/>
	<rect id="Rectangle_290" x="-195" y="-257.3" class="st0" width="5.8" height="5.8"/>
	<rect id="Rectangle_291" x="-204.6" y="-275.6" class="st0" width="5.8" height="5.8"/>
	<rect id="Rectangle_292" x="-195" y="-275.6" class="st0" width="5.8" height="5.8"/>
</g>
</svg>
