<?xml version="1.0" encoding="utf-8"?>
<!-- Generator: Adobe Illustrator 27.0.0, SVG Export Plug-In . SVG Version: 6.00 Build 0)  -->
<svg version="1.1" id="Layer_1" xmlns="http://www.w3.org/2000/svg" xmlns:xlink="http://www.w3.org/1999/xlink" x="0px" y="0px"
	 viewBox="0 0 100 100" style="enable-background:new 0 0 100 100;" xml:space="preserve">
<g id="Group_1129">
	<path id="Path_1446" d="M50,89.8c-12.1,0-24.3,0-36.4,0c-5.1,0.2-9.7-3.2-11.1-8.2c-0.3-1.2-0.5-2.5-0.5-3.8c0-13.1,0-26.2,0-39.3
		c-0.3-5.2,3-10,8.1-11.5c1.3-0.3,2.6-0.5,3.9-0.5c2.2-0.1,4.4,0,6.6,0c2,0.1,4-1,4.9-2.8c1.5-2.6,3.1-5.2,4.6-7.7
		c2.1-3.7,6-5.9,10.3-5.8c6.4,0,12.8,0,19.3,0c4.2-0.1,8.2,2.1,10.2,5.8c1.4,2.4,2.9,4.7,4.2,7.1c1.1,2.3,3.5,3.7,6.1,3.4
		c2.5-0.2,5-0.1,7.5,0.1C93.6,27,98.1,32,97.9,37.9c0.1,13.5,0.1,26.9,0,40.4c0.2,6.1-4.6,11.3-10.8,11.5c-0.3,0-0.6,0-0.9,0
		C74.1,89.8,62.1,89.8,50,89.8 M49.9,30.7C37,30.7,26.6,41.2,26.6,54.2c0.1,12.9,10.6,23.4,23.5,23.3C63.1,77.5,73.5,66.9,73.5,54
		C73.4,41.1,62.9,30.6,49.9,30.7"/>
	<path id="Path_1447" d="M50.1,36.8c9.6,0.1,17.3,7.9,17.2,17.4c-0.1,9.6-7.9,17.3-17.4,17.2c-9.5-0.1-17.2-7.8-17.2-17.3
		C32.6,44.5,40.4,36.8,50.1,36.8C50,36.8,50,36.8,50.1,36.8"/>
</g>
</svg>
