<?xml version="1.0" encoding="utf-8"?>
<!-- Generator: Adobe Illustrator 26.0.0, SVG Export Plug-In . SVG Version: 6.00 Build 0)  -->
<svg version="1.1" id="Layer_1" xmlns="http://www.w3.org/2000/svg" xmlns:xlink="http://www.w3.org/1999/xlink" x="0px" y="0px"
	 viewBox="0 0 100 100" style="enable-background:new 0 0 100 100;" xml:space="preserve">

<g id="Group_611">
	<g>
		<defs>
			<rect id="SVGID_1_" x="1.76" y="11.01" width="96.48" height="77.97"/>
		</defs>
		<clipPath id="SVGID_00000127033139181143441180000009644976291129116596_">
			<use xlink:href="#SVGID_1_"  style="overflow:visible;"/>
		</clipPath>
		<g id="Group_610" style="clip-path:url(#SVGID_00000127033139181143441180000009644976291129116596_);">
			<path id="Path_1256" class="st1" d="M13.54,88.99c-4.38,0.3-8.5-2.1-10.41-6.05c-0.84-1.72-1.29-3.6-1.31-5.51
				C1.74,63.92,1.76,50.18,1.78,36.89v-0.64C1.73,29.89,6.84,24.7,13.2,24.65c0.06,0,0.11,0,0.17,0c2.33-0.08,4.67-0.07,6.94-0.05
				c1.25,0,2.55,0.02,3.82,0c0.9,0,1.22-0.16,1.56-1.15c0.32-0.9,0.63-1.81,0.93-2.72c0.67-1.98,1.36-4.02,2.17-6.01
				c0.65-1.37,1.77-2.47,3.15-3.1c1.14-0.46,2.37-0.66,3.59-0.58h0.11c7.43-0.02,14.97-0.02,22.26-0.02h5.69
				c5.47,0,6.83,0.98,8.57,6.2c0.76,2.29,1.54,4.52,2.19,6.4c0.13,0.64,0.74,1.07,1.38,0.99c1.46,0,2.96,0,4.41,0
				c2.06,0,4.2,0,6.3,0.03c6.44-0.07,11.71,5.09,11.78,11.53c0,0.09,0,0.17,0,0.26c-0.02,13.09-0.02,26.18,0,40.7
				c0.32,4.97-2.7,9.54-7.39,11.22c-1.43,0.48-2.94,0.69-4.45,0.62c-9.51,0.02-19.15,0.02-28.49,0.02h-8.05H39.75
				c-8.56,0-17.42-0.01-26.12,0.02L13.54,88.99 M17.5,29.04c-1.33,0-2.66,0.01-3.97,0.06c-3.89-0.14-7.15,2.9-7.29,6.79
				c0,0.12-0.01,0.25,0,0.37v0.64c-0.02,13.28-0.04,27,0.04,40.5c0.02,1.24,0.31,2.45,0.85,3.57c1.17,2.42,3.73,3.85,6.41,3.57h0.06
				c8.72-0.04,17.58-0.03,26.15-0.02h10.11h8.06c9.34,0,18.99,0,28.48-0.02c0.96,0.06,1.91-0.05,2.84-0.31
				c2.98-1.01,4.86-3.93,4.56-7.06c-0.01-14.53-0.02-27.62,0-40.72c0.05-3.99-3.13-7.26-7.12-7.32c-0.1,0-0.19,0-0.29,0
				c-2.06-0.04-4.17-0.03-6.21-0.02c-1.46,0-2.97,0-4.46,0c-2.53,0.06-4.8-1.56-5.55-3.98c-0.67-1.9-1.45-4.14-2.22-6.47
				c-0.26-1.01-0.68-1.97-1.27-2.84c-1-0.28-2.04-0.38-3.07-0.31h-5.68c-7.29,0-14.82,0-22.23,0.01h-0.12
				c-0.57-0.04-1.14,0.01-1.69,0.15c-0.37,0.17-0.7,0.43-0.93,0.76c-0.76,1.87-1.43,3.85-2.08,5.77c-0.31,0.93-0.63,1.85-0.95,2.77
				c-0.72,2.54-3.1,4.25-5.74,4.11c-1.3,0-2.61,0-3.88,0C19.36,29.05,18.44,29.04,17.5,29.04 M49.09,79.84
				c-6.16-0.04-12.07-2.48-16.48-6.79c-10.21-9.56-10.74-25.58-1.18-35.79c4.79-5.12,11.49-8.02,18.51-8.01h0.06
				c6.74-0.01,13.21,2.7,17.93,7.51c9.87,9.77,9.96,25.69,0.19,35.56c-0.22,0.22-0.45,0.44-0.68,0.66
				c-4.61,4.57-10.9,7.04-17.4,6.84C49.73,79.83,49.41,79.84,49.09,79.84 M50.01,33.7h-0.05c-11.52-0.02-20.88,9.31-20.89,20.84
				c-0.01,5.8,2.4,11.33,6.63,15.29c3.79,3.73,8.94,5.73,14.26,5.54h0.1h0.1c5.31,0.17,10.45-1.86,14.21-5.61
				c8.39-7.89,8.8-21.09,0.91-29.48C61.31,36.06,55.79,33.68,50.01,33.7 M83.65,44.96c-1.44-0.03-2.81-0.64-3.81-1.68
				c-1.06-1.04-1.66-2.47-1.67-3.95l2.23,0.04l-2.23-0.04c0.11-3.02,2.57-5.42,5.59-5.47c2.94,0.18,5.28,2.54,5.42,5.49
				c-0.17,2.99-2.53,5.39-5.51,5.62L83.65,44.96z M83.7,38.31c-0.57,0.07-1.01,0.53-1.07,1.09c0.03,0.29,0.17,0.55,0.38,0.74
				c0.17,0.19,0.39,0.32,0.64,0.36l0,0c0.53-0.19,0.94-0.63,1.08-1.18C84.59,38.84,84.2,38.45,83.7,38.31L83.7,38.31z"/>
			<path id="Path_1257" class="st1" d="M50.23,70.61h-0.37h-0.05c-4.18,0-8.18-1.66-11.12-4.63c-6.25-6.24-6.26-16.38-0.02-22.63
				c6.24-6.25,16.38-6.26,22.63-0.02c3,2.99,4.69,7.06,4.7,11.29c-0.02,4.33-1.77,8.48-4.88,11.5c-2.9,2.87-6.82,4.48-10.9,4.49
				 M49.9,66.15h0.03c3.02,0.07,5.93-1.09,8.08-3.22c4.57-4.44,4.68-11.74,0.24-16.32c-4.44-4.57-11.74-4.68-16.32-0.24
				c-4.57,4.44-4.68,11.74-0.24,16.32c0.04,0.05,0.09,0.09,0.14,0.14c2.13,2.14,5.03,3.34,8.05,3.32H49.9z"/>
		</g>
	</g>
</g>
</svg>
