<?xml version="1.0" encoding="utf-8"?>
<!-- Generator: Adobe Illustrator 26.0.0, SVG Export Plug-In . SVG Version: 6.00 Build 0)  -->
<svg version="1.1" id="Layer_1" xmlns="http://www.w3.org/2000/svg" xmlns:xlink="http://www.w3.org/1999/xlink" x="0px" y="0px"
	 viewBox="0 0 100 100" style="enable-background:new 0 0 100 100;" xml:space="preserve">

<g>
	<defs>
		<rect id="SVGID_1_" x="2.35" y="13.96" width="95.3" height="72.09"/>
	</defs>
	<clipPath id="SVGID_00000090262359945382635190000007797168646532363920_">
		<use xlink:href="#SVGID_1_"  style="overflow:visible;"/>
	</clipPath>
	
		<g id="Group_613" transform="translate(246.638 75.704)" style="clip-path:url(#SVGID_00000090262359945382635190000007797168646532363920_);">
		<path id="Path_1258" class="st1" d="M-191.8,1.53h2.37c7.58,0,15.16,0,22.74,0c2.71,0,3.27,0.53,3.38,3.05
			c0.23,5.73,0.23,5.73-5.88,5.73h-28.48c-3.21,0-3.59-0.36-3.59-3.33c0-15.06,0-30.12,0-45.18c0-2.67-1.19-3.47-3.91-2.6
			c-6.16,1.97-12.32,3.94-18.47,5.93c-2.5,0.8-3.31,0.42-4.15-1.96c-0.36-1.01-0.67-2.04-1.07-3.04c-0.62-1.64-0.05-2.62,1.7-3.16
			c5.55-1.73,11.06-3.55,16.62-5.25c1.51-0.47,2.14-1.07,2.14-2.73c0.22-4.78,3.5-8.87,8.11-10.14c4.68-1.64,9.88-0.1,12.92,3.81
			c0.59,0.96,1.81,1.3,2.81,0.79c4.96-1.6,9.93-3.16,14.92-4.71c2.51-0.78,3.32-0.37,4.16,1.97c0.28,0.77,0.53,1.55,0.8,2.32
			c0.93,2.64,0.66,3.21-2.23,4.12c-5.66,1.8-11.34,3.53-16.97,5.41c-0.87,0.45-1.62,1.08-2.22,1.85c-1.53,1.51-3.04,3.05-4.5,4.63
			c-0.53,0.59-1.3,1.34-1.3,2.02c-0.07,13.05-0.06,26.1-0.05,39.16C-191.95,0.66-191.88,1.1-191.8,1.53"/>
		<path id="Path_1259" class="st1" d="M-225.57,10.34c-5.05,0.12-10.03-1.26-14.3-3.96c-3.88-1.85-5.53-6.5-3.68-10.39
			c0.14-0.29,0.29-0.57,0.47-0.84c3.71-7.15,7.49-14.25,11.23-21.39c1.19-2.48,3.77-4,6.52-3.82c2.68-0.12,5.17,1.38,6.33,3.8
			c3.89,7.41,7.81,14.81,11.68,22.23c1.78,3.44,0.61,7.66-2.67,9.7c-4.53,3.26-10.03,4.9-15.61,4.66 M-225.45-23.68l-10.82,20.5
			h21.72l-10.86-20.48"/>
		<path id="Path_1260" class="st1" d="M-168.07-7.66c-5.33,0.09-10.56-1.47-14.97-4.47c-3.61-2.02-4.9-6.58-2.89-10.19
			c0.05-0.08,0.09-0.17,0.14-0.25c3.78-7.32,7.65-14.6,11.5-21.89c1.21-2.39,3.75-3.81,6.42-3.59c2.61-0.18,5.08,1.23,6.25,3.57
			c3.91,7.4,7.84,14.79,11.7,22.22c1.81,3.25,0.89,7.34-2.14,9.51C-156.66-9.27-162.31-7.47-168.07-7.66 M-167.93-41.77
			l-10.86,20.52h21.71L-167.93-41.77"/>
	</g>
</g>
<g id="Group_637" transform="translate(282.494 73.286)">
	<g>
		<defs>
			<rect id="SVGID_00000114056118479942480750000004353647727092926639_" x="35.85" y="4.5" width="13.3" height="17.72"/>
		</defs>
		<clipPath id="SVGID_00000096057611590346213290000011223775581630854834_">
			<use xlink:href="#SVGID_00000114056118479942480750000004353647727092926639_"  style="overflow:visible;"/>
		</clipPath>
		<g id="Group_636" style="clip-path:url(#SVGID_00000096057611590346213290000011223775581630854834_);">
			<path id="Path_1261" class="st1" d="M40.51,6.69c0.19-1.42,0.89-2.2,1.99-2.2c1.09,0,1.79,0.76,1.99,2.21h1.46
				c0.46,0,0.91,0,1.37,0c0.94-0.07,1.75,0.63,1.83,1.56c0.01,0.09,0.01,0.17,0,0.26c0,2.21,0,4.42,0,6.64c0,1.72,0,3.44,0,5.16
				c0.11,0.93-0.55,1.77-1.48,1.89c-0.14,0.02-0.28,0.02-0.42,0H37.7c-0.91,0.11-1.74-0.55-1.85-1.46c-0.02-0.13-0.01-0.26,0-0.39
				c0-3.94,0-7.89,0-11.83c-0.07-0.93,0.62-1.75,1.56-1.82c0.09-0.01,0.18-0.01,0.27,0c0.83,0,1.66,0,2.49,0
				C40.28,6.71,40.4,6.7,40.51,6.69 M39.14,7.88h-1.48c-0.5,0-0.65,0.14-0.65,0.63c0,3.97,0,7.93,0,11.9c0,0.52,0.15,0.66,0.67,0.66
				h9.66c0.53,0,0.65-0.12,0.65-0.66c0-2.64,0-5.29,0-7.93c0-1.33,0-2.67,0-4c0-0.47-0.13-0.59-0.6-0.59c-0.42,0-0.84,0.01-1.26,0
				c-0.22-0.01-0.31,0.07-0.29,0.29c0.01,0.11,0,0.22,0,0.32c0.03,0.23-0.12,0.44-0.35,0.47c-0.04,0.01-0.07,0.01-0.11,0
				c-1.91,0-3.82,0-5.73,0c-0.23,0.02-0.44-0.15-0.47-0.38c0-0.02,0-0.04,0-0.06C39.16,8.33,39.15,8.13,39.14,7.88 M43.29,6.45
				c0.02-0.41-0.29-0.76-0.7-0.78c-0.03,0-0.06,0-0.09,0c-0.42-0.02-0.79,0.3-0.81,0.73c0,0.03,0,0.05,0,0.08
				c-0.01,0.43,0.34,0.78,0.77,0.79c0.01,0,0.02,0,0.03,0c0.42,0.02,0.78-0.31,0.8-0.73C43.3,6.5,43.3,6.47,43.29,6.45"/>
			<path id="Path_1262" class="st1" d="M43.61,17.26c-0.6,0-1.2,0.01-1.8,0c-0.38,0-0.45-0.11-0.45-0.56s0.07-0.59,0.43-0.59
				c1.21-0.01,2.42-0.01,3.64,0c0.27,0,0.43,0.13,0.41,0.43c-0.01,0.11-0.01,0.22,0,0.32c0.01,0.29-0.13,0.42-0.42,0.41
				C44.82,17.27,44.22,17.27,43.61,17.26"/>
			<path id="Path_1263" class="st1" d="M40.08,12.6c0.52-0.52,0.98-0.99,1.44-1.46c0.32-0.32,0.37-0.32,0.67-0.03
				c0.4,0.4,0.4,0.42,0.08,0.74c-0.63,0.63-1.27,1.24-1.9,1.87c-0.2,0.2-0.34,0.21-0.53,0c-0.34-0.36-0.68-0.71-1.04-1.05
				c-0.32-0.3-0.04-0.45,0.13-0.64s0.35-0.36,0.59-0.08C39.67,12.18,39.86,12.37,40.08,12.6"/>
			<path id="Path_1264" class="st1" d="M41.81,13.79c0.31-0.3,0.61-0.6,0.93-0.89c0.11-0.07,0.23-0.11,0.36-0.11
				c0.76-0.01,1.51-0.01,2.27,0c0.4,0,0.46,0.08,0.45,0.63c0,0.45-0.05,0.5-0.46,0.5c-1.08,0-2.16,0-3.24,0
				c-0.09,0-0.18-0.01-0.27-0.03L41.81,13.79"/>
			<path id="Path_1265" class="st1" d="M40.57,16.68c0.02,0.45-0.33,0.82-0.78,0.84c-0.02,0-0.04,0-0.06,0
				c-0.45,0-0.82-0.37-0.83-0.82c0-0.47,0.37-0.85,0.83-0.86c0.46-0.01,0.83,0.36,0.84,0.81C40.57,16.66,40.57,16.67,40.57,16.68"/>
		</g>
	</g>
</g>
<g id="Group_639" transform="translate(315.254 74.522)">
	<g>
		<defs>
			<rect id="SVGID_00000019637141567084025200000016076040453673926788_" x="35.85" y="4.5" width="16.48" height="15.76"/>
		</defs>
		<clipPath id="SVGID_00000133500058988171334750000008910156903562351292_">
			<use xlink:href="#SVGID_00000019637141567084025200000016076040453673926788_"  style="overflow:visible;"/>
		</clipPath>
		<g id="Group_638" style="clip-path:url(#SVGID_00000133500058988171334750000008910156903562351292_);">
			<path id="Path_1266" class="st1" d="M38.64,19.21c0.12-0.73,0.26-1.54,0.4-2.35c0.11-0.64,0.24-1.27,0.32-1.91
				c0.01-0.21-0.06-0.41-0.2-0.56c-0.95-0.95-1.91-1.89-2.89-2.82c-0.34-0.25-0.49-0.69-0.37-1.1c0.12-0.39,0.48-0.66,0.89-0.66
				c1.37-0.19,2.74-0.4,4.1-0.64c0.19-0.04,0.35-0.16,0.45-0.33c0.61-1.18,1.2-2.38,1.77-3.58c0.2-0.43,0.46-0.77,0.97-0.77
				c0.52,0,0.79,0.34,1,0.78c0.57,1.2,1.16,2.39,1.77,3.58c0.1,0.16,0.27,0.28,0.46,0.32c1.39,0.23,2.79,0.45,4.18,0.65
				c0.37,0.02,0.68,0.27,0.79,0.62c0.14,0.36,0.04,0.76-0.25,1.02c-0.92,0.89-1.81,1.8-2.76,2.65c-0.38,0.29-0.54,0.79-0.4,1.25
				c0.25,1.21,0.44,2.43,0.64,3.64c0.12,0.41-0.04,0.85-0.39,1.09c-0.34,0.22-0.79,0.21-1.12-0.03c-1.19-0.63-2.39-1.23-3.58-1.86
				c-0.2-0.13-0.45-0.13-0.65-0.01c-1.22,0.65-2.46,1.28-3.69,1.92c-0.45,0.28-1.03,0.14-1.31-0.31
				C38.67,19.64,38.62,19.42,38.64,19.21"/>
		</g>
	</g>
</g>
<g id="Group_643" transform="translate(71.212 76.286)">
	<g>
		<defs>
			<rect id="SVGID_00000044136699757414868430000000962121659610579858_" x="231.44" y="-34.92" width="11.9" height="11.92"/>
		</defs>
		<clipPath id="SVGID_00000098212113158088492840000002873031399821996463_">
			<use xlink:href="#SVGID_00000044136699757414868430000000962121659610579858_"  style="overflow:visible;"/>
		</clipPath>
		<g id="Group_642" style="clip-path:url(#SVGID_00000098212113158088492840000002873031399821996463_);">
			<path id="Path_1269" class="st5" d="M242.41-28.68c-0.8-1.21-1.85-2.22-3.09-2.97c-0.3-0.2-0.66-0.3-1.01-0.27
				c-0.44,0.04-0.89,0.04-1.34,0c-0.76-0.07-1.51,0.17-2.09,0.65c-2.01,1.25-3.29,3.39-3.44,5.75c-0.15,1.23,0.72,2.35,1.95,2.5
				c0.12,0.01,0.24,0.02,0.36,0.02c1.21,0,2.43,0,3.64,0c1.24,0,2.49,0.01,3.73,0c1.2,0.02,2.19-0.93,2.21-2.13c0,0,0-0.01,0-0.01
				C243.37-26.39,243.05-27.62,242.41-28.68 M239.02-25.9c-0.15,0.22-0.37,0.39-0.61,0.49c-0.2,0.09-0.41,0.14-0.63,0.16v0.7h-0.63
				v-0.68c-0.26-0.02-0.52-0.06-0.78-0.13c-0.28-0.07-0.54-0.2-0.78-0.37l0.34-0.76c0.2,0.14,0.42,0.25,0.66,0.33
				c0.18,0.06,0.36,0.1,0.55,0.12v-1.05c-0.15-0.04-0.31-0.08-0.46-0.12c-0.18-0.05-0.34-0.13-0.5-0.22
				c-0.15-0.09-0.27-0.22-0.36-0.37c-0.1-0.17-0.14-0.37-0.13-0.57c0-0.24,0.07-0.48,0.2-0.68c0.15-0.22,0.36-0.39,0.61-0.49
				c0.21-0.09,0.43-0.14,0.65-0.16v-0.69h0.63v0.68c0.19,0.01,0.37,0.04,0.56,0.09c0.25,0.06,0.48,0.15,0.7,0.29l-0.32,0.76
				c-0.19-0.11-0.39-0.19-0.6-0.25c-0.11-0.03-0.22-0.05-0.34-0.07v1.06c0.15,0.03,0.3,0.08,0.45,0.12
				c0.17,0.06,0.34,0.13,0.49,0.22c0.15,0.09,0.27,0.21,0.36,0.36c0.1,0.17,0.15,0.37,0.14,0.56
				C239.23-26.34,239.16-26.1,239.02-25.9 M238.09-26.78c-0.09-0.07-0.2-0.12-0.31-0.15v0.85c0.03-0.01,0.06-0.01,0.08-0.02
				c0.1-0.03,0.2-0.09,0.27-0.17c0.06-0.07,0.09-0.15,0.09-0.24C238.22-26.61,238.17-26.71,238.09-26.78 M236.77-28.68
				c-0.06,0.07-0.08,0.16-0.08,0.25c0,0.11,0.05,0.21,0.14,0.28c0.1,0.07,0.21,0.12,0.32,0.15v-0.89c-0.04,0.01-0.08,0.02-0.11,0.03
				C236.94-28.82,236.84-28.76,236.77-28.68"/>
			<path id="Path_1270" class="st5" d="M237.39-32.7c-0.4,0-0.81,0.02-1.21-0.01c-0.15-0.01-0.28-0.08-0.38-0.19
				c-0.32-0.44-0.62-0.88-0.89-1.35c-0.1-0.14-0.13-0.31-0.08-0.48c0.11-0.12,0.28-0.19,0.45-0.19c1.42-0.01,2.84-0.01,4.26,0
				c0.48,0,0.62,0.26,0.36,0.66c-0.3,0.46-0.6,0.92-0.92,1.37c-0.09,0.1-0.21,0.17-0.35,0.18C238.22-32.69,237.8-32.7,237.39-32.7"
				/>
		</g>
	</g>
</g>
<g id="Group_648" transform="translate(318.958 -0.001)">
	<g>
		<defs>
			<rect id="SVGID_00000062180614723120726740000008416605298176563868_" x="35.85" y="4.5" width="10.52" height="12.31"/>
		</defs>
		<clipPath id="SVGID_00000037691505174810820250000001552001766848396192_">
			<use xlink:href="#SVGID_00000062180614723120726740000008416605298176563868_"  style="overflow:visible;"/>
		</clipPath>
		
			<g id="Group_647" transform="translate(0 0.001)" style="clip-path:url(#SVGID_00000037691505174810820250000001552001766848396192_);">
			<path id="Path_1274" class="st7" d="M46.17,11.14c-0.29-0.32-0.79-0.35-1.11-0.05c0,0,0,0,0,0l-3.15,2.88V5.28
				c-0.02-0.43-0.38-0.77-0.81-0.76c-0.41,0.01-0.74,0.35-0.76,0.76v8.69l-3.16-2.88c-0.32-0.29-0.82-0.27-1.11,0.05
				c-0.29,0.32-0.27,0.82,0.05,1.11l0,0l5,4.56l5-4.56C46.43,11.96,46.45,11.46,46.17,11.14"/>
		</g>
	</g>
</g>
</svg>
