<?xml version="1.0" encoding="utf-8"?>
<!-- Generator: Adobe Illustrator 26.0.0, SVG Export Plug-In . SVG Version: 6.00 Build 0)  -->
<svg version="1.1" id="Layer_1" xmlns="http://www.w3.org/2000/svg" xmlns:xlink="http://www.w3.org/1999/xlink" x="0px" y="0px"
	 viewBox="0 0 84 73" style="enable-background:new 0 0 84 73;" xml:space="preserve">

<g>
	<defs>
		<rect id="SVGID_1_" x="2.58" y="7.45" width="78.84" height="58.1"/>
	</defs>
	<clipPath id="SVGID_00000182510127709201266820000015355741261645280180_">
		<use xlink:href="#SVGID_1_"  style="overflow:visible;"/>
	</clipPath>
	<g id="Group_505" style="clip-path:url(#SVGID_00000182510127709201266820000015355741261645280180_);">
		<path id="Path_755" class="st1" d="M12.4,34.74c-0.06,0.63-0.14,1.07-0.14,1.51c-0.01,3.86,0.01,7.71-0.01,11.57
			c-0.04,0.7,0.26,1.38,0.81,1.83c1.6,1.4,2.04,3.71,1.06,5.6c-1.04,2.02-3.36,3.02-5.55,2.39c-1.8-0.38-3.18-1.83-3.48-3.64
			c-0.35-1.73,0.31-3.5,1.7-4.58c0.35-0.32,0.57-0.75,0.62-1.22c0.05-5.02,0.02-10.04,0.05-15.06c0.01-0.83-0.54-1.09-1.12-1.37
			c-1.14-0.44-2.14-1.19-2.9-2.14c-1.47-2.02-1.01-4.85,1.01-6.32c0.21-0.15,0.43-0.29,0.67-0.4c3.3-1.51,6.66-2.91,10-4.35
			c3.22-1.39,6.44-2.77,9.66-4.15c3.67-1.57,7.34-3.14,11.02-4.71c1.32-0.56,2.65-1.11,3.95-1.71c1.34-0.65,2.91-0.7,4.28-0.11
			c3.55,1.47,7.05,3.07,10.59,4.58c6,2.56,12.02,5.09,18.03,7.65c2.1,0.9,4.21,1.8,6.27,2.78c1.61,0.74,2.6,2.38,2.52,4.14
			c0.06,1.8-0.99,3.46-2.63,4.2c-4.39,2.2-8.8,4.33-13.22,6.46c-0.76,0.28-1.23,1.03-1.15,1.83c0.03,4.93,0.05,9.86-0.05,14.78
			c-0.01,3-1.51,5.79-4,7.46c-1.6,1.13-3.4,1.94-5.31,2.38c-6.52,1.46-13.23,1.82-19.86,1.07c-3.14-0.19-6.23-0.89-9.15-2.08
			c-3.79-1.69-6.27-4.48-6.38-8.81c-0.12-4.71-0.13-9.42-0.04-14.14c0.19-1.23-0.54-2.41-1.72-2.79
			C16.11,36.61,14.38,35.7,12.4,34.74 M13.23,26.88l0.05,0.31c2.08,0.87,4.16,1.74,6.24,2.6c3.29,1.37,6.59,2.73,9.88,4.11
			c3.26,1.37,6.54,2.7,9.77,4.15c1.65,0.93,3.64,0.98,5.33,0.13c3.67-1.78,7.53-3.19,11.31-4.75c3.78-1.57,7.55-3.14,11.32-4.71
			c1.22-0.51,2.43-1.05,3.83-1.67c-0.33-0.23-0.67-0.43-1.03-0.61c-2.78-1.17-5.56-2.34-8.35-3.49c-5.83-2.43-11.67-4.83-17.47-7.31
			c-1.33-0.57-2.55-0.97-3.88-0.1c-0.32,0.18-0.65,0.33-1,0.46c-4.23,1.75-8.45,3.5-12.68,5.25c-3.77,1.56-7.54,3.13-11.31,4.7
			C14.57,26.22,13.9,26.56,13.23,26.88 M57.3,48.06c0-1.68,0-3.37,0-5.05c0-0.99-0.27-1.2-1.21-0.89
			c-3.67,1.21-7.36,2.42-11.02,3.65c-1.48,0.5-2.95,1.07-4.54,0.54c-4.23-1.4-8.45-2.82-12.67-4.23c-0.79-0.26-1.11-0.05-1.11,0.75
			c-0.01,3.46-0.05,6.92,0.02,10.37c-0.05,1.58,0.86,3.03,2.3,3.67c1.82,0.8,3.78,1.25,5.76,1.32c6.02,0.42,12.05,0.6,18.01-0.56
			c2.96-0.57,4.51-1.97,4.47-5.08C57.29,51.06,57.31,49.56,57.3,48.06"/>
	</g>
</g>
</svg>
