<?xml version="1.0" encoding="utf-8"?>
<!-- Generator: Adobe Illustrator 26.0.0, SVG Export Plug-In . SVG Version: 6.00 Build 0)  -->
<svg version="1.1" id="Layer_1" xmlns="http://www.w3.org/2000/svg" xmlns:xlink="http://www.w3.org/1999/xlink" x="0px" y="0px"
	 viewBox="0 0 84 73" style="enable-background:new 0 0 84 73;" xml:space="preserve">

<g>
	<defs>
		<rect id="SVGID_1_" x="2.35" y="2.5" width="79.29" height="68"/>
	</defs>
	<clipPath id="SVGID_00000134931116303768960150000006327898260267533499_">
		<use xlink:href="#SVGID_1_"  style="overflow:visible;"/>
	</clipPath>
	<g id="Group_507" style="clip-path:url(#SVGID_00000134931116303768960150000006327898260267533499_);">
		<path id="Path_756" class="st1" d="M35.31,53.41H23.28c-3.14,0.27-5.9-2.06-6.16-5.2c-0.03-0.32-0.03-0.64,0-0.96
			c-0.03-7.33,4.44-11.87,11.74-11.9c4.45-0.01,8.91-0.02,13.36,0c6.15-0.14,11.24,4.74,11.38,10.89c0.02,0.77-0.05,1.55-0.19,2.3
			c-0.4,2.87-2.92,4.96-5.81,4.84c-4.1,0.02-8.2,0-12.29,0"/>
		<path id="Path_757" class="st1" d="M35.25,32.97c-4.98-0.02-8.99-4.08-8.97-9.05s4.08-8.99,9.05-8.97
			c4.97,0.02,8.98,4.06,8.97,9.03c-0.01,4.98-4.05,9-9.03,8.99C35.27,32.97,35.26,32.97,35.25,32.97"/>
		<path id="Path_758" class="st1" d="M65.18,48.49c-0.58,0-1.15-0.04-1.73-0.12c-6.55,14.98-23.99,21.81-38.97,15.27
			S2.68,39.64,9.22,24.66S33.21,2.85,48.19,9.39c5.33,2.33,9.86,6.18,13.01,11.07c0.84,1.29,1.57,2.65,2.2,4.06
			c1.63-0.24,3.3-0.15,4.89,0.28c-0.6-1.66-1.34-3.26-2.2-4.8C56.98,3.62,36.31-2.28,19.93,6.84S-2.34,36.62,6.77,53
			s29.78,22.27,46.16,13.16c5.57-3.1,10.16-7.71,13.23-13.29c0.85-1.54,1.58-3.15,2.18-4.81C67.31,48.34,66.25,48.49,65.18,48.49"/>
		<path id="Path_759" class="st1" d="M66.1,20c-0.3-0.02-0.61-0.02-0.92-0.02c-9.09,0-16.46,7.37-16.46,16.46S56.09,52.9,65.18,52.9
			c0.33,0,0.66-0.01,0.99-0.03c9.08-0.55,15.99-8.35,15.44-17.43C81.11,27.11,74.44,20.47,66.1,20 M68.35,48.06
			c-6.42,1.75-13.04-2.04-14.79-8.46c-1.75-6.42,2.04-13.04,8.46-14.79c6.42-1.75,13.04,2.04,14.79,8.46
			c0.28,1.03,0.42,2.1,0.42,3.16C77.26,41.88,73.61,46.66,68.35,48.06"/>
		<path id="Path_760" class="st1" d="M71.01,34.49h-3.77v-3.66h-4.12v3.66h-3.77v3.89h3.77v3.66h4.12v-3.66h3.77V34.49z"/>
	</g>
</g>
</svg>
