<?xml version="1.0" encoding="utf-8"?>
<!-- Generator: Adobe Illustrator 26.0.0, SVG Export Plug-In . SVG Version: 6.00 Build 0)  -->
<svg version="1.1" id="Layer_1" xmlns="http://www.w3.org/2000/svg" xmlns:xlink="http://www.w3.org/1999/xlink" x="0px" y="0px"
	 viewBox="0 0 100 100" style="enable-background:new 0 0 100 100;" xml:space="preserve">

<g id="Group_959">
	<path id="Path_1411" class="st0" d="M44.59,94.98c-7.82,0-15.64,0-23.47,0c-8.54,0.38-15.76-6.24-16.14-14.77
		c-0.02-0.44-0.02-0.89,0-1.34c0-15.56,0-31.13,0-46.7c-0.51-8.62,6.07-16.02,14.69-16.52c0.52-0.03,1.04-0.04,1.56-0.01
		c5.92-0.11,11.85-0.04,17.78,0c0.94-0.13,1.9,0.03,2.74,0.46c1.05,0.89,2.38,2.18,2.42,3.34c-0.16,1.49-0.88,2.86-2.02,3.84
		c-1.03,0.58-2.22,0.82-3.39,0.67c-6.08,0.06-12.17,0-18.25,0.03c-3.97-0.11-7.27,3.01-7.38,6.98c0,0.11,0,0.21,0,0.32
		c-0.05,16.04-0.05,32.08,0,48.12c-0.07,3.98,3.1,7.27,7.08,7.34c0.18,0,0.36,0,0.53-0.01c15.96,0,31.92,0,47.88,0
		c3.89,0.23,7.22-2.74,7.45-6.62c0.02-0.26,0.02-0.53,0-0.79c0.05-6.16,0-12.32,0.03-18.49c0-1.94,0.24-3.88,2.31-4.81
		c1.93-1.02,4.32-0.28,5.34,1.65c0.31,0.58,0.46,1.22,0.46,1.88c0.12,7.26,0.33,14.55-0.2,21.79c-0.65,7.88-7.33,13.87-15.23,13.66
		C60.72,95.03,52.66,94.97,44.59,94.98"/>
	<path id="Path_1412" class="st0" d="M95.01,19.7c-0.04,3.51-1.48,6.86-4,9.31c-11.5,11.51-23.05,22.97-34.49,34.53
		c-3.23,2.68-7.12,4.43-11.26,5.08c-3.95,1.1-7.87,2.27-11.84,3.29c-2.13,0.84-4.55-0.2-5.39-2.34c-0.4-1.02-0.39-2.15,0.04-3.16
		c1.32-4.79,2.94-9.5,4.09-14.33c1.1-4.29,3.43-8.17,6.7-11.15C49.48,30.52,59.91,19.96,70.4,9.45c3.56-4.16,9.39-5.59,14.47-3.53
		c5.66,2.36,9.57,7.64,10.15,13.75 M38.02,61.46l0.52,0.5c2.56-0.75,5.08-1.63,7.68-2.22c2.38-0.56,4.53-1.83,6.19-3.63
		c6.63-6.77,13.39-13.43,20.07-20.13c0.59-0.59,1.12-1.24,1.51-1.68l-8.26-8.36c-0.46,0.43-1.07,0.92-1.61,1.48
		c-6.46,6.46-12.72,13.22-19.5,19.35C40.03,50.92,39.96,56.46,38.02,61.46 M72.22,19.06l8.31,8.77c1.66-1.74,3.42-3.43,5-5.28
		c1.6-1.67,1.55-4.31-0.12-5.91c-0.02-0.02-0.05-0.04-0.07-0.06c-0.7-0.75-1.46-1.44-2.26-2.08c-1.63-1.66-4.3-1.68-5.95-0.05
		c-0.02,0.02-0.03,0.03-0.05,0.05c-1.8,1.52-3.45,3.23-4.87,4.56"/>
</g>
</svg>
