<?xml version="1.0" encoding="utf-8"?>
<!-- Generator: Adobe Illustrator 26.0.0, SVG Export Plug-In . SVG Version: 6.00 Build 0)  -->
<svg version="1.1" id="Layer_1" xmlns="http://www.w3.org/2000/svg" xmlns:xlink="http://www.w3.org/1999/xlink" x="0px" y="0px"
	 viewBox="0 0 100 100" style="enable-background:new 0 0 100 100;" xml:space="preserve">

<g>
	<defs>
		<rect id="SVGID_1_" x="1.29" y="1.22" width="112.19" height="97.28"/>
	</defs>
	<clipPath id="SVGID_00000109708507113821182710000015289428027160017590_">
		<use xlink:href="#SVGID_1_"  style="overflow:visible;"/>
	</clipPath>
	<g id="Mask_Group_421" style="clip-path:url(#SVGID_00000109708507113821182710000015289428027160017590_);">
		<path id="Path_698" class="st1" d="M74.99,1.22c3.24,0.06,6.33,1.4,8.59,3.73c3.64,3.64,7.31,7.24,10.91,10.91
			c4.96,4.35,5.45,11.89,1.1,16.84c-0.36,0.41-0.75,0.8-1.17,1.16C83.04,45.29,71.64,56.7,60.22,68.07
			C51.84,76.45,43.44,84.8,35.1,93.22c-1.38,1.48-3.26,2.39-5.28,2.54c-7.75,0.74-15.49,1.67-23.23,2.57
			c-3.92,0.45-5.68-1.29-5.23-5.26c0.88-7.74,1.82-15.47,2.58-23.22c0.15-1.94,1.01-3.75,2.43-5.08
			C22.65,48.54,38.91,32.3,55.16,16.04c3.63-3.64,7.27-7.27,10.9-10.91C68.38,2.67,71.6,1.26,74.99,1.22 M78.26,39.46L59.69,21.14
			c-0.39,0.8-0.87,1.55-1.44,2.24c-14.14,14.18-28.24,28.4-42.52,42.43c-3.04,2.53-4.88,6.22-5.07,10.17
			c-0.14,4.78-0.94,9.54-1.49,14.6c6.77-0.77,13.24-1.46,19.7-2.31c0.79-0.1,1.56-0.94,2.2-1.57
			c15.18-15.13,30.34-30.27,45.48-45.44C77.09,40.72,77.6,40.15,78.26,39.46 M83.96,33.93c1.95-1.99,4.09-4.02,6.04-6.22
			c1.59-1.67,1.53-4.31-0.13-5.9c-0.01-0.01-0.03-0.03-0.04-0.04c-3.89-4.04-7.86-8-11.9-11.89c-1.58-1.67-4.22-1.75-5.9-0.16
			C72.02,9.74,72,9.75,71.99,9.76c-2.2,1.94-4.26,4.04-6.2,5.89L83.96,33.93"/>
		<path id="Path_700" class="st1" d="M33.7,70.76L29.36,66l28.66-28.64l4.39,4.69L33.7,70.76"/>
	</g>
</g>
</svg>
