<?xml version="1.0" encoding="utf-8"?>
<!-- Generator: Adobe Illustrator 26.0.0, SVG Export Plug-In . SVG Version: 6.00 Build 0)  -->
<svg version="1.1" id="Layer_1" xmlns="http://www.w3.org/2000/svg" xmlns:xlink="http://www.w3.org/1999/xlink" x="0px" y="0px"
	 viewBox="0 0 100 100" style="enable-background:new 0 0 100 100;" xml:space="preserve">

<g id="Group_609" transform="translate(160.786 2.652)">
	<g>
		<defs>
			<rect id="SVGID_1_" x="-158.45" y="12.02" width="95.32" height="70.65"/>
		</defs>
		<clipPath id="SVGID_00000148624384311261100550000015084310353573436093_">
			<use xlink:href="#SVGID_1_"  style="overflow:visible;"/>
		</clipPath>
		<g id="Group_608" style="clip-path:url(#SVGID_00000148624384311261100550000015084310353573436093_);">
			<path id="Path_1254" class="st1" d="M-110.64,12.02c13.11,0,26.21,0,39.32,0c6.47,0,8.19,1.73,8.19,8.06c0,18.31,0,36.62,0,54.92
				c0,5.45-2.13,7.6-7.81,7.62c-12.69,0.05-25.38,0.02-38.06,0.02c-13.63,0-27.25,0-40.88,0c-6.6,0.02-8.56-1.94-8.56-8.47
				c0-18.21,0-36.42,0-54.63c0-5.49,1.96-7.48,7.55-7.5C-137.49,12-124.06,12.02-110.64,12.02 M-66.06,75.17
				c0.1-1.27,0.17-1.76,0.17-2.25c0.01-17.99,0.02-35.98,0.02-53.98c0-3.13-1.16-4.14-4.84-4.15c-26.72-0.03-53.45-0.03-80.18,0
				c-3.83,0-4.76,1.02-4.76,4.82c0,16.85,0,33.7,0,50.55c0,0.86,0.13,1.73,0.19,2.6l0.9,0.59c0.49-0.91,1.07-1.77,1.72-2.57
				c8.71-8.94,17.44-17.85,26.19-26.74c2.61-2.65,3.37-2.68,6.21-0.19c4.37,3.85,8.72,7.71,13.09,11.56
				c3.47,3.06,4.83,3.15,8.81,0.59c0.7-0.45,1.39-0.91,2.09-1.36c3.81-2.49,3.93-2.47,7.48,0.63c7.43,6.48,14.88,12.94,22.88,19.9"
				/>
			<path id="Path_1255" class="st1" d="M-83.56,33.78c0.15,4.57-3.43,8.4-8.01,8.55c-0.03,0-0.07,0-0.1,0
				c-4.71-0.1-8.45-4-8.34-8.71c0.1-4.55,3.76-8.23,8.31-8.34c4.56,0.06,8.21,3.81,8.14,8.38C-83.55,33.69-83.55,33.73-83.56,33.78"
				/>
		</g>
	</g>
</g>
</svg>
