<?xml version="1.0" encoding="utf-8"?>
<!-- Generator: Adobe Illustrator 26.0.0, SVG Export Plug-In . SVG Version: 6.00 Build 0)  -->
<svg version="1.1" id="Layer_1" xmlns="http://www.w3.org/2000/svg" xmlns:xlink="http://www.w3.org/1999/xlink" x="0px" y="0px"
	 viewBox="0 0 100 100" style="enable-background:new 0 0 100 100;" xml:space="preserve">
	 
<g>
	<defs>
		<rect id="SVGID_1_" x="3.58" y="1.5" width="92.85" height="97"/>
	</defs>
	<clipPath id="SVGID_00000165231250973432242830000003626264905163571352_">
		<use xlink:href="#SVGID_1_"  style="overflow:visible;"/>
	</clipPath>
	<g id="Group_515" style="clip-path:url(#SVGID_00000165231250973432242830000003626264905163571352_);">
		<path id="Path_771" class="st1" d="M31.93,98.5h-7.28c-5.38,0.29-9.98-3.83-10.28-9.21c-0.02-0.36-0.02-0.73,0-1.09
			c0-8.12,0-16.24,0-24.36v-7.71c-1.22,0-2.4,0-3.54,0.06c-2.35,0.19-4.59-1.02-5.73-3.08c-2.49-3.96-1.81-9.13,1.62-12.3
			c3.94-3.96,7.89-7.93,11.86-11.88l5.94-5.93l7.15-7.16L42.71,4.79c3.57-4.04,9.74-4.41,13.78-0.84c0.28,0.25,0.55,0.51,0.8,0.79
			c11.78,11.77,23.89,23.88,36.01,36c3.83,3.55,4.19,9.48,0.82,13.47c-1.06,1.14-2.52,1.83-4.08,1.92
			c-1.46,0.06-2.92,0.07-4.35,0.07v8.65c0,7.72,0,15.43,0,23.15c0.44,5.36-3.56,10.07-8.92,10.51c-0.52,0.04-1.04,0.04-1.57,0H53.55
			V87.07c0-5.4,0-10.8,0-16.2c0.03-0.37-0.03-0.74-0.16-1.09c-0.34-0.13-0.7-0.18-1.06-0.16h-0.67c-1.42,0-2.84,0-4.25,0
			c-0.8,0-0.91,0.11-0.91,0.92c0,5.49,0,10.97,0,16.46v11.51H31.93 M13.45,49.56c0.71,0,1.42,0,2.09,0c0.67,0,1.39,0,2.09,0h3.28
			V63.8c0,8.12,0,16.24,0,24.36c0,2.59,1.16,3.74,3.74,3.75c4.04,0,8.07,0,12.11,0h3.16v-4.96c0-5.49,0-10.98,0-16.48
			c-0.21-3.91,2.78-7.25,6.69-7.46c0.23-0.01,0.47-0.01,0.7,0c1.47-0.02,2.94,0,4.37,0h0.67c3.94-0.34,7.41,2.58,7.75,6.52
			c0.04,0.43,0.04,0.85,0,1.28c0,5.4,0,10.8,0,16.21v4.88h15.08c2.86,0,3.93-1.06,3.93-3.95c0-7.72,0-15.43,0-23.15V50.91l1.99-0.85
			l0.07-0.03c0.5-0.26,1.04-0.39,1.6-0.4c0.71,0,1.39,0,2.09,0c1.57,0,3.06,0,4.54-0.05c0.83-1.39,0.5-3.18-0.77-4.19
			c-12.11-12.12-24.22-24.23-36-36c-1.05-1.45-3.07-1.78-4.53-0.73c-0.3,0.22-0.56,0.48-0.77,0.79L36.31,20.46l-7.15,7.16
			l-5.94,5.94c-3.96,3.96-7.92,7.91-11.87,11.87c-1.25,1.02-1.55,2.81-0.71,4.19C11.58,49.57,12.52,49.56,13.45,49.56"/>
	</g>
</g>
</svg>
