<?xml version="1.0" encoding="utf-8"?>
<!-- Generator: Adobe Illustrator 26.0.0, SVG Export Plug-In . SVG Version: 6.00 Build 0)  -->
<svg version="1.1" id="Layer_1" xmlns="http://www.w3.org/2000/svg" xmlns:xlink="http://www.w3.org/1999/xlink" x="0px" y="0px"
	 viewBox="0 0 100 100" style="enable-background:new 0 0 100 100;" xml:space="preserve">

<g>
	<defs>
		<rect id="SVGID_1_" x="282.49" y="80.2" width="17.82" height="13.48"/>
	</defs>
	<clipPath id="SVGID_00000137121472938306565510000003220157315723857314_">
		<use xlink:href="#SVGID_1_"  style="overflow:visible;"/>
	</clipPath>
	
		<g id="Group_613" transform="translate(246.638 75.704)" style="clip-path:url(#SVGID_00000137121472938306565510000003220157315723857314_);">
		<path id="Path_1258" class="st1" d="M45.67,16.33h0.44c1.42,0,2.83,0,4.25,0c0.51,0,0.61,0.1,0.63,0.57
			c0.04,1.07,0.04,1.07-1.1,1.07h-5.33c-0.6,0-0.67-0.07-0.67-0.62c0-2.82,0-5.63,0-8.45c0-0.5-0.22-0.65-0.73-0.49
			c-1.15,0.37-2.3,0.74-3.45,1.11c-0.47,0.15-0.62,0.08-0.78-0.37c-0.07-0.19-0.12-0.38-0.2-0.57C38.62,8.28,38.73,8.1,39.05,8
			c1.04-0.32,2.07-0.66,3.11-0.98c0.28-0.09,0.4-0.2,0.4-0.51c0.04-0.89,0.65-1.66,1.52-1.9c0.87-0.31,1.85-0.02,2.42,0.71
			c0.11,0.18,0.34,0.24,0.53,0.15c0.93-0.3,1.86-0.59,2.79-0.88c0.47-0.15,0.62-0.07,0.78,0.37c0.05,0.14,0.1,0.29,0.15,0.43
			c0.17,0.49,0.12,0.6-0.42,0.77c-1.06,0.34-2.12,0.66-3.17,1.01c-0.16,0.08-0.3,0.2-0.42,0.35c-0.29,0.28-0.57,0.57-0.84,0.87
			c-0.1,0.11-0.24,0.25-0.24,0.38c-0.01,2.44-0.01,4.88-0.01,7.32C45.64,16.17,45.65,16.25,45.67,16.33"/>
		<path id="Path_1259" class="st1" d="M39.35,17.98c-0.94,0.02-1.88-0.24-2.67-0.74c-0.73-0.35-1.03-1.22-0.69-1.94
			c0.03-0.05,0.06-0.11,0.09-0.16c0.69-1.34,1.4-2.67,2.1-4c0.22-0.46,0.7-0.75,1.22-0.71c0.5-0.02,0.97,0.26,1.18,0.71
			c0.73,1.39,1.46,2.77,2.18,4.16c0.33,0.64,0.11,1.43-0.5,1.81C41.42,17.71,40.39,18.02,39.35,17.98 M39.38,11.62l-2.02,3.83h4.06
			L39.38,11.62"/>
		<path id="Path_1260" class="st1" d="M50.11,14.61c-1,0.02-1.98-0.28-2.8-0.84c-0.68-0.38-0.92-1.23-0.54-1.9
			c0.01-0.02,0.02-0.03,0.03-0.05c0.71-1.37,1.43-2.73,2.15-4.09c0.23-0.45,0.7-0.71,1.2-0.67c0.49-0.03,0.95,0.23,1.17,0.67
			c0.73,1.38,1.46,2.77,2.19,4.15c0.34,0.61,0.17,1.37-0.4,1.78C52.24,14.31,51.18,14.65,50.11,14.61 M50.13,8.23l-2.03,3.84h4.06
			L50.13,8.23"/>
	</g>
</g>
<g id="Group_637" transform="translate(282.494 73.286)">
	<g>
		<defs>
			<rect id="SVGID_00000147207542203990516710000005092501414536712876_" x="35.85" y="4.5" width="13.3" height="17.72"/>
		</defs>
		<clipPath id="SVGID_00000071549532908858108560000014698823978521439620_">
			<use xlink:href="#SVGID_00000147207542203990516710000005092501414536712876_"  style="overflow:visible;"/>
		</clipPath>
		<g id="Group_636" style="clip-path:url(#SVGID_00000071549532908858108560000014698823978521439620_);">
			<path id="Path_1261" class="st1" d="M40.51,6.69c0.19-1.42,0.89-2.2,1.99-2.2c1.09,0,1.79,0.76,1.99,2.21h1.46
				c0.46,0,0.91,0,1.37,0c0.94-0.07,1.75,0.63,1.83,1.56c0.01,0.09,0.01,0.17,0,0.26c0,2.21,0,4.42,0,6.64c0,1.72,0,3.44,0,5.16
				c0.11,0.93-0.55,1.77-1.48,1.89c-0.14,0.02-0.28,0.02-0.42,0H37.7c-0.91,0.11-1.74-0.55-1.85-1.46c-0.02-0.13-0.01-0.26,0-0.39
				c0-3.94,0-7.89,0-11.83c-0.07-0.93,0.62-1.75,1.56-1.82c0.09-0.01,0.18-0.01,0.27,0c0.83,0,1.66,0,2.49,0
				C40.28,6.71,40.4,6.7,40.51,6.69 M39.14,7.88h-1.48c-0.5,0-0.65,0.14-0.65,0.63c0,3.97,0,7.93,0,11.9c0,0.52,0.15,0.66,0.67,0.66
				h9.66c0.53,0,0.65-0.12,0.65-0.66c0-2.64,0-5.29,0-7.93c0-1.33,0-2.67,0-4c0-0.47-0.13-0.59-0.6-0.59c-0.42,0-0.84,0.01-1.26,0
				c-0.22-0.01-0.31,0.07-0.29,0.29c0.01,0.11,0,0.22,0,0.32c0.03,0.23-0.12,0.44-0.35,0.47c-0.04,0.01-0.07,0.01-0.11,0
				c-1.91,0-3.82,0-5.73,0c-0.23,0.02-0.44-0.15-0.47-0.38c0-0.02,0-0.04,0-0.06C39.16,8.33,39.15,8.13,39.14,7.88 M43.29,6.45
				c0.02-0.41-0.29-0.76-0.7-0.78c-0.03,0-0.06,0-0.09,0c-0.42-0.02-0.79,0.3-0.81,0.73c0,0.03,0,0.05,0,0.08
				c-0.01,0.43,0.34,0.78,0.77,0.79c0.01,0,0.02,0,0.03,0c0.42,0.02,0.78-0.31,0.8-0.73C43.3,6.5,43.3,6.47,43.29,6.45"/>
			<path id="Path_1262" class="st1" d="M43.61,17.26c-0.6,0-1.2,0.01-1.8,0c-0.38,0-0.45-0.11-0.45-0.56s0.07-0.59,0.43-0.59
				c1.21-0.01,2.42-0.01,3.64,0c0.27,0,0.43,0.13,0.41,0.43c-0.01,0.11-0.01,0.22,0,0.32c0.01,0.29-0.13,0.42-0.42,0.41
				C44.82,17.27,44.22,17.27,43.61,17.26"/>
			<path id="Path_1263" class="st1" d="M40.08,12.6c0.52-0.52,0.98-0.99,1.44-1.46c0.32-0.32,0.37-0.32,0.67-0.03
				c0.4,0.4,0.4,0.42,0.08,0.74c-0.63,0.63-1.27,1.24-1.9,1.87c-0.2,0.2-0.34,0.21-0.53,0c-0.34-0.36-0.68-0.71-1.04-1.05
				c-0.32-0.3-0.04-0.45,0.13-0.64s0.35-0.36,0.59-0.08C39.67,12.18,39.86,12.37,40.08,12.6"/>
			<path id="Path_1264" class="st1" d="M41.81,13.79c0.31-0.3,0.61-0.6,0.93-0.89c0.11-0.07,0.23-0.11,0.36-0.11
				c0.76-0.01,1.51-0.01,2.27,0c0.4,0,0.46,0.08,0.45,0.63c0,0.45-0.05,0.5-0.46,0.5c-1.08,0-2.16,0-3.24,0
				c-0.09,0-0.18-0.01-0.27-0.03L41.81,13.79"/>
			<path id="Path_1265" class="st1" d="M40.57,16.68c0.02,0.45-0.33,0.82-0.78,0.84c-0.02,0-0.04,0-0.06,0
				c-0.45,0-0.82-0.37-0.83-0.82c0-0.47,0.37-0.85,0.83-0.86c0.46-0.01,0.83,0.36,0.84,0.81C40.57,16.66,40.57,16.67,40.57,16.68"/>
		</g>
	</g>
</g>
<g id="Group_639" transform="translate(315.254 74.522)">
	<g>
		<defs>
			<rect id="SVGID_00000171687047267027701850000007382982513734819983_" x="35.85" y="4.5" width="16.48" height="15.76"/>
		</defs>
		<clipPath id="SVGID_00000107553650986288820400000006275545016470130620_">
			<use xlink:href="#SVGID_00000171687047267027701850000007382982513734819983_"  style="overflow:visible;"/>
		</clipPath>
		<g id="Group_638" style="clip-path:url(#SVGID_00000107553650986288820400000006275545016470130620_);">
			<path id="Path_1266" class="st1" d="M38.64,19.21c0.12-0.73,0.26-1.54,0.4-2.35c0.11-0.64,0.24-1.27,0.32-1.91
				c0.01-0.21-0.06-0.41-0.2-0.56c-0.95-0.95-1.91-1.89-2.89-2.82c-0.34-0.25-0.49-0.69-0.37-1.1c0.12-0.39,0.48-0.66,0.89-0.66
				c1.37-0.19,2.74-0.4,4.1-0.64c0.19-0.04,0.35-0.16,0.45-0.33c0.61-1.18,1.2-2.38,1.77-3.58c0.2-0.43,0.46-0.77,0.97-0.77
				c0.52,0,0.79,0.34,1,0.78c0.57,1.2,1.16,2.39,1.77,3.58c0.1,0.16,0.27,0.28,0.46,0.32c1.39,0.23,2.79,0.45,4.18,0.65
				c0.37,0.02,0.68,0.27,0.79,0.62c0.14,0.36,0.04,0.76-0.25,1.02c-0.92,0.89-1.81,1.8-2.76,2.65c-0.38,0.29-0.54,0.79-0.4,1.25
				c0.25,1.21,0.44,2.43,0.64,3.64c0.12,0.41-0.04,0.85-0.39,1.09c-0.34,0.22-0.79,0.21-1.12-0.03c-1.19-0.63-2.39-1.23-3.58-1.86
				c-0.2-0.13-0.45-0.13-0.65-0.01c-1.22,0.65-2.46,1.28-3.69,1.92c-0.45,0.28-1.03,0.14-1.31-0.31
				C38.67,19.64,38.62,19.42,38.64,19.21"/>
		</g>
	</g>
</g>
<g id="Group_643" transform="translate(71.212 76.286)">
	<g>
		<defs>
			<rect id="SVGID_00000074430938078580916220000000158526076615378612_" x="231.44" y="-34.92" width="11.9" height="11.92"/>
		</defs>
		<clipPath id="SVGID_00000055708924688786693870000014119039651086073278_">
			<use xlink:href="#SVGID_00000074430938078580916220000000158526076615378612_"  style="overflow:visible;"/>
		</clipPath>
		<g id="Group_642" style="clip-path:url(#SVGID_00000055708924688786693870000014119039651086073278_);">
			<path id="Path_1269" class="st5" d="M242.41-28.68c-0.8-1.21-1.85-2.22-3.09-2.97c-0.3-0.2-0.66-0.3-1.01-0.27
				c-0.44,0.04-0.89,0.04-1.34,0c-0.76-0.07-1.51,0.17-2.09,0.65c-2.01,1.25-3.29,3.39-3.44,5.75c-0.15,1.23,0.72,2.35,1.95,2.5
				c0.12,0.01,0.24,0.02,0.36,0.02c1.21,0,2.43,0,3.64,0c1.24,0,2.49,0.01,3.73,0c1.2,0.02,2.19-0.93,2.21-2.13c0,0,0-0.01,0-0.01
				C243.37-26.39,243.05-27.62,242.41-28.68 M239.02-25.9c-0.15,0.22-0.37,0.39-0.61,0.49c-0.2,0.09-0.41,0.14-0.63,0.16v0.7h-0.63
				v-0.68c-0.26-0.02-0.52-0.06-0.78-0.13c-0.28-0.07-0.54-0.2-0.78-0.37l0.34-0.76c0.2,0.14,0.42,0.25,0.66,0.33
				c0.18,0.06,0.36,0.1,0.55,0.12v-1.05c-0.15-0.04-0.31-0.08-0.46-0.12c-0.18-0.05-0.34-0.13-0.5-0.22
				c-0.15-0.09-0.27-0.22-0.36-0.37c-0.1-0.17-0.14-0.37-0.13-0.57c0-0.24,0.07-0.48,0.2-0.68c0.15-0.22,0.36-0.39,0.61-0.49
				c0.21-0.09,0.43-0.14,0.65-0.16v-0.69h0.63v0.68c0.19,0.01,0.37,0.04,0.56,0.09c0.25,0.06,0.48,0.15,0.7,0.29l-0.32,0.76
				c-0.19-0.11-0.39-0.19-0.6-0.25c-0.11-0.03-0.22-0.05-0.34-0.07v1.06c0.15,0.03,0.3,0.08,0.45,0.12
				c0.17,0.06,0.34,0.13,0.49,0.22c0.15,0.09,0.27,0.21,0.36,0.36c0.1,0.17,0.15,0.37,0.14,0.56
				C239.23-26.34,239.16-26.1,239.02-25.9 M238.09-26.78c-0.09-0.07-0.2-0.12-0.31-0.15v0.85c0.03-0.01,0.06-0.01,0.08-0.02
				c0.1-0.03,0.2-0.09,0.27-0.17c0.06-0.07,0.09-0.15,0.09-0.24C238.22-26.61,238.17-26.71,238.09-26.78 M236.77-28.68
				c-0.06,0.07-0.08,0.16-0.08,0.25c0,0.11,0.05,0.21,0.14,0.28c0.1,0.07,0.21,0.12,0.32,0.15v-0.89c-0.04,0.01-0.08,0.02-0.11,0.03
				C236.94-28.82,236.84-28.76,236.77-28.68"/>
			<path id="Path_1270" class="st5" d="M237.39-32.7c-0.4,0-0.81,0.02-1.21-0.01c-0.15-0.01-0.28-0.08-0.38-0.19
				c-0.32-0.44-0.62-0.88-0.89-1.35c-0.1-0.14-0.13-0.31-0.08-0.48c0.11-0.12,0.28-0.19,0.45-0.19c1.42-0.01,2.84-0.01,4.26,0
				c0.48,0,0.62,0.26,0.36,0.66c-0.3,0.46-0.6,0.92-0.92,1.37c-0.09,0.1-0.21,0.17-0.35,0.18C238.22-32.69,237.8-32.7,237.39-32.7"
				/>
		</g>
	</g>
</g>
<g id="Group_645" transform="translate(160.874 76.286)">
	<g>
		<defs>
			<rect id="SVGID_00000118389679244765499440000003393255849674541969_" x="-156.36" y="-71.79" width="90.97" height="91"/>
		</defs>
		<clipPath id="SVGID_00000147205187124211693110000002532314973132873910_">
			<use xlink:href="#SVGID_00000118389679244765499440000003393255849674541969_"  style="overflow:visible;"/>
		</clipPath>
		<g id="Group_644" style="clip-path:url(#SVGID_00000147205187124211693110000002532314973132873910_);">
			<path id="Path_1271" class="st7" d="M-65.39-26.27c-0.02,25.12-20.4,45.48-45.52,45.46c-25.12-0.02-45.48-20.4-45.46-45.52
				s20.4-45.48,45.52-45.46c0.02,0,0.05,0,0.07,0C-85.72-71.63-65.47-51.32-65.39-26.27 M-73.47-26.19
				c0.05-20.65-16.65-37.43-37.3-37.49c-20.65-0.05-37.43,16.65-37.49,37.3s16.65,37.43,37.3,37.49c0.01,0,0.03,0,0.04,0
				C-90.31,11.08-73.59-5.58-73.47-26.19"/>
			<path id="Path_1272" class="st7" d="M-114.96-17.4c0-5.26,0-10.53,0-15.77c0-2.86,1.07-4.29,3.3-4.73
				c2.06-0.48,4.12,0.8,4.6,2.86c0.01,0.04,0.02,0.08,0.03,0.12c0.13,0.62,0.2,1.26,0.21,1.9c0,10.46,0,20.91,0,31.37
				c-0.01,0.57-0.08,1.13-0.21,1.69c-0.42,2.14-2.49,3.53-4.62,3.11c-1.62-0.32-2.86-1.6-3.13-3.22c-0.16-1.98-0.22-3.97-0.17-5.96
				c0-3.77,0-7.54,0-11.31"/>
			<path id="Path_1273" class="st7" d="M-110.74-45.72c-2.83,0.05-5.17-2.2-5.23-5.03c-0.02-2.81,2.25-5.1,5.06-5.12
				c2.81-0.02,5.1,2.25,5.12,5.06C-105.81-48.06-108-45.82-110.74-45.72"/>
		</g>
	</g>
</g>
<g id="Group_648" transform="translate(318.958 -0.001)">
	<g>
		<defs>
			<rect id="SVGID_00000013168559062242261670000007834298547827165107_" x="35.85" y="4.5" width="10.52" height="12.31"/>
		</defs>
		<clipPath id="SVGID_00000070095286344158631910000014330092433175643533_">
			<use xlink:href="#SVGID_00000013168559062242261670000007834298547827165107_"  style="overflow:visible;"/>
		</clipPath>
		
			<g id="Group_647" transform="translate(0 0.001)" style="clip-path:url(#SVGID_00000070095286344158631910000014330092433175643533_);">
			<path id="Path_1274" class="st7" d="M46.17,11.14c-0.29-0.32-0.79-0.35-1.11-0.05c0,0,0,0,0,0l-3.15,2.88V5.28
				c-0.02-0.43-0.38-0.77-0.81-0.76c-0.41,0.01-0.74,0.35-0.76,0.76v8.69l-3.16-2.88c-0.32-0.29-0.82-0.27-1.11,0.05
				c-0.29,0.32-0.27,0.82,0.05,1.11l0,0l5,4.56l5-4.56C46.43,11.96,46.45,11.46,46.17,11.14"/>
		</g>
	</g>
</g>
</svg>
