<?xml version="1.0" encoding="utf-8"?>
<!-- Generator: Adobe Illustrator 26.0.0, SVG Export Plug-In . SVG Version: 6.00 Build 0)  -->
<svg version="1.1" id="Layer_1" xmlns="http://www.w3.org/2000/svg" xmlns:xlink="http://www.w3.org/1999/xlink" x="0px" y="0px"
	 viewBox="0 0 100 100" style="enable-background:new 0 0 100 100;" xml:space="preserve">

<g id="Group_637" transform="translate(282.494 73.286)">
	<g>
		<defs>
			<rect id="SVGID_1_" x="-268.63" y="-71.44" width="72.28" height="96.3"/>
		</defs>
		<clipPath id="SVGID_00000007422895870708307550000010950883309235084960_">
			<use xlink:href="#SVGID_1_"  style="overflow:visible;"/>
		</clipPath>
		<g id="Group_636" style="clip-path:url(#SVGID_00000007422895870708307550000010950883309235084960_);">
			<path id="Path_1261" class="st1" d="M-243.32-59.51c1.01-7.71,4.86-11.93,10.81-11.93s9.71,4.1,10.83,12.02h7.95
				c2.48,0,4.96,0,7.45,0c5.09-0.39,9.53,3.41,9.93,8.5c0.04,0.47,0.04,0.95,0,1.42c0.03,12.02,0.03,24.05,0,36.07
				c0,9.35,0,18.69,0,28.03c0.62,5.05-2.97,9.64-8.02,10.26c-0.77,0.09-1.54,0.09-2.31-0.01h-51.92c-4.97,0.57-9.46-2.99-10.04-7.96
				c-0.08-0.71-0.08-1.42,0.01-2.13c0-21.43,0-42.86,0-64.3c-0.39-5.07,3.4-9.5,8.47-9.89c0.48-0.04,0.96-0.04,1.44,0
				c4.51,0,9.02,0,13.52,0C-244.56-59.42-243.93-59.47-243.32-59.51 M-250.8-53.07h-8.05c-2.72,0-3.53,0.77-3.53,3.45
				c0,21.56,0,43.12,0,64.68c0,2.81,0.8,3.58,3.63,3.58h52.51c2.88,0,3.54-0.66,3.54-3.59c0-14.37,0-28.75,0-43.12
				c0-7.25,0-14.5,0-21.74c0-2.53-0.71-3.22-3.26-3.23c-2.29,0-4.57,0.05-6.86,0c-1.21-0.04-1.68,0.4-1.57,1.58
				c0.05,0.58,0,1.17,0,1.76c0.18,1.24-0.67,2.39-1.9,2.57c-0.2,0.03-0.4,0.03-0.61,0.01c-10.39,0-20.77,0-31.16,0
				c-1.27,0.13-2.41-0.8-2.53-2.07c-0.01-0.1-0.01-0.21-0.01-0.31c-0.08-1.09-0.1-2.17-0.16-3.52 M-228.21-60.85
				c0.13-2.22-1.57-4.12-3.79-4.25c-0.16-0.01-0.33-0.01-0.49,0c-2.31-0.12-4.28,1.65-4.4,3.96c-0.01,0.15-0.01,0.29,0,0.44
				c-0.03,2.33,1.83,4.25,4.16,4.28c0.06,0,0.12,0,0.19,0c2.3,0.11,4.25-1.67,4.35-3.96c0.01-0.16,0.01-0.32-0.01-0.48"/>
			<path id="Path_1262" class="st1" d="M-226.46-2.06c-3.26,0-6.52,0.03-9.78,0c-2.04,0-2.44-0.58-2.47-3.07
				c-0.03-2.49,0.39-3.21,2.33-3.23c6.59-0.07,13.18-0.04,19.76,0c1.49,0,2.31,0.73,2.21,2.32c-0.03,0.59-0.03,1.17,0,1.76
				c0.06,1.57-0.72,2.26-2.26,2.25c-3.26,0-6.52,0-9.78,0"/>
			<path id="Path_1263" class="st1" d="M-245.67-27.39c2.8-2.83,5.32-5.38,7.84-7.91c1.76-1.76,2.02-1.77,3.61-0.16
				c2.17,2.17,2.17,2.29,0.41,4.04c-3.43,3.4-6.91,6.75-10.33,10.19c-1.09,1.09-1.86,1.13-2.91,0c-1.83-1.95-3.72-3.84-5.67-5.69
				c-1.73-1.63-0.24-2.45,0.71-3.46c0.95-1.01,1.89-1.94,3.2-0.42c0.93,1.09,1.94,2.12,3.11,3.41"/>
			<path id="Path_1264" class="st1" d="M-236.24-20.94c1.69-1.63,3.32-3.26,5.08-4.81c0.58-0.4,1.27-0.61,1.98-0.59
				c4.11-0.05,8.22-0.05,12.33,0c2.2,0,2.47,0.45,2.44,3.41c-0.03,2.44-0.27,2.72-2.47,2.72c-5.87,0-11.74,0-17.61,0
				c-0.5-0.03-0.99-0.08-1.48-0.16l-0.26-0.54"/>
			<path id="Path_1265" class="st1" d="M-243.02-5.22c0.09,2.42-1.8,4.46-4.23,4.55c-0.11,0-0.22,0-0.33,0
				c-2.47-0.01-4.47-1.99-4.53-4.45c-0.02-2.54,2-4.62,4.53-4.69c2.48-0.04,4.52,1.94,4.56,4.41
				C-243.02-5.34-243.02-5.28-243.02-5.22"/>
		</g>
	</g>
</g>
<g id="Group_639" transform="translate(315.254 74.522)">
	<g>
		<defs>
			<rect id="SVGID_00000176756891226020967550000009686446817920427150_" x="35.85" y="4.5" width="16.48" height="15.76"/>
		</defs>
		<clipPath id="SVGID_00000114756610542999827510000013091547143442196924_">
			<use xlink:href="#SVGID_00000176756891226020967550000009686446817920427150_"  style="overflow:visible;"/>
		</clipPath>
		<g id="Group_638" style="clip-path:url(#SVGID_00000114756610542999827510000013091547143442196924_);">
			<path id="Path_1266" class="st1" d="M38.64,19.21c0.12-0.73,0.26-1.54,0.4-2.35c0.11-0.64,0.24-1.27,0.32-1.91
				c0.01-0.21-0.06-0.41-0.2-0.56c-0.95-0.95-1.91-1.89-2.89-2.82c-0.34-0.25-0.49-0.69-0.37-1.1c0.12-0.39,0.48-0.66,0.89-0.66
				c1.37-0.19,2.74-0.4,4.1-0.64c0.19-0.04,0.35-0.16,0.45-0.33c0.61-1.18,1.2-2.38,1.77-3.58c0.2-0.43,0.46-0.77,0.97-0.77
				c0.52,0,0.79,0.34,1,0.78c0.57,1.2,1.16,2.39,1.77,3.58c0.1,0.16,0.27,0.28,0.46,0.32c1.39,0.23,2.79,0.45,4.18,0.65
				c0.37,0.02,0.68,0.27,0.79,0.62c0.14,0.36,0.04,0.76-0.25,1.02c-0.92,0.89-1.81,1.8-2.76,2.65c-0.38,0.29-0.54,0.79-0.4,1.25
				c0.25,1.21,0.44,2.43,0.64,3.64c0.12,0.41-0.04,0.85-0.39,1.09c-0.34,0.22-0.79,0.21-1.12-0.03c-1.19-0.63-2.39-1.23-3.58-1.86
				c-0.2-0.13-0.45-0.13-0.65-0.01c-1.22,0.65-2.46,1.28-3.69,1.92c-0.45,0.28-1.03,0.14-1.31-0.31
				C38.67,19.64,38.62,19.42,38.64,19.21"/>
		</g>
	</g>
</g>
</svg>
