<?xml version="1.0" encoding="utf-8"?>
<!-- Generator: Adobe Illustrator 26.0.0, SVG Export Plug-In . SVG Version: 6.00 Build 0)  -->
<svg version="1.1" id="Layer_1" xmlns="http://www.w3.org/2000/svg" xmlns:xlink="http://www.w3.org/1999/xlink" x="0px" y="0px"
	 viewBox="0 0 100 100" style="enable-background:new 0 0 100 100;" xml:space="preserve">

<g id="Group_961">
	<path id="Path_1413" class="st0" d="M61.94,38.22c0-4.07,0.05-7.9,0-11.73c-0.61-2.44,0.87-4.92,3.31-5.53
		c1.85-0.46,3.79,0.27,4.87,1.85c8.3,7.88,16.67,15.7,24.98,23.57c1.99,1.37,2.49,4.1,1.12,6.09c-0.3,0.44-0.68,0.82-1.12,1.12
		c-8.47,8.06-16.97,16.1-25.5,24.1c-1.27,1.49-3.38,1.94-5.15,1.11c-1.67-0.83-2.66-2.59-2.49-4.45c0-3.44-0.1-6.88,0-10.31
		c0.07-1.82-0.5-2.41-2.35-2.38c-6.54,0.1-13.1-0.03-19.64,0.07c-4.26,0.07-7.84-1.29-7.42-7.28c0.23-3.26,0.03-6.54,0.04-9.82
		c-0.43-3.04,1.69-5.86,4.73-6.29c0.54-0.08,1.08-0.07,1.62,0.01c6.88,0,13.75,0,20.62,0c0.67,0,1.33-0.07,2.35-0.12"/>
	<path id="Path_1414" class="st0" d="M14.37,50c0,7.44,0,14.89,0,22.33c0,5.14,2.14,7.26,7.32,7.32c3.44,0,6.87,0,10.31,0
		c3.15-0.16,5.84,2.26,6,5.41c0.16,3.15-2.26,5.84-5.41,6c-0.18,0.01-0.37,0.01-0.55,0c-3.93,0.04-7.85,0.04-11.78,0
		C10.87,91.01,3.24,83.47,3.1,74.08c-0.13-16.03-0.13-32.07,0-48.11c0.09-9.49,7.85-17.11,17.34-17.02c0.01,0,0.03,0,0.04,0
		c3.76-0.09,7.53-0.06,11.31,0c3.05-0.39,5.83,1.76,6.22,4.81c0.04,0.29,0.05,0.58,0.04,0.87c0.12,3.06-2.27,5.64-5.34,5.76
		c-0.29,0.01-0.58,0-0.88-0.04c-3.68,0.07-7.36-0.05-11.04,0.08c-3.3-0.25-6.17,2.22-6.42,5.52c-0.03,0.4-0.02,0.81,0.03,1.21
		c-0.03,7.61,0,15.22,0,22.83"/>
</g>
</svg>
