<?xml version="1.0" encoding="utf-8"?>
<!-- Generator: Adobe Illustrator 26.0.0, SVG Export Plug-In . SVG Version: 6.00 Build 0)  -->
<svg version="1.1" id="Layer_1" xmlns="http://www.w3.org/2000/svg" xmlns:xlink="http://www.w3.org/1999/xlink" x="0px" y="0px"
	 viewBox="0 0 51.4 51.4" style="enable-background:new 0 0 51.4 51.4;" xml:space="preserve">

<g id="Group_313" transform="translate(134.311 120.826)">
	<g>
		<g>
			<defs>
				<rect id="SVGID_1_" x="-133.2" y="-120.2" width="49.4" height="49.4"/>
			</defs>
			<clipPath id="SVGID_00000155110759292645869040000012577095485865095045_">
				<use xlink:href="#SVGID_1_"  style="overflow:visible;"/>
			</clipPath>
			<g id="Group_312" style="clip-path:url(#SVGID_00000155110759292645869040000012577095485865095045_);">
				<path id="Path_634" class="st1" d="M-83.8-95.4c0,13.6-11.2,24.7-24.8,24.6s-24.7-11.2-24.6-24.8c0-13.6,11.2-24.7,24.8-24.6
					c0,0,0,0,0.1,0C-94.8-120.2-83.7-109.1-83.8-95.4C-83.8-95.5-83.8-95.4-83.8-95.4 M-125.7-85.3h34.4v-20.4h-34.4V-85.3z"/>
				<path id="Path_635" class="st1" d="M-122.3-104.1h27.5c-0.4,0.4-0.7,0.7-1,0.9c-3.6,2.9-7.3,5.6-10.9,8.5c-1,1-2.5,1.1-3.5,0.1
					c0,0,0,0-0.1-0.1c-3.7-3-7.5-5.9-11.3-8.8C-121.8-103.6-121.9-103.8-122.3-104.1"/>
				<path id="Path_636" class="st1" d="M-122.4-87l9.7-7.5c1.3,2.3,4.3,3.1,6.6,1.7c0.7-0.4,1.3-1,1.7-1.7l9.7,7.5H-122.4z"/>
				<path id="Path_637" class="st1" d="M-123.9-103.2l9.8,7.6l-9.8,7.7V-103.2z"/>
				<path id="Path_638" class="st1" d="M-102.9-95.5l9.9-7.6v15.3L-102.9-95.5"/>
			</g>
		</g>
	</g>
</g>
</svg>
