<?xml version="1.0" encoding="utf-8"?>
<!-- Generator: Adobe Illustrator 26.0.0, SVG Export Plug-In . SVG Version: 6.00 Build 0)  -->
<svg version="1.1" id="Layer_1" xmlns="http://www.w3.org/2000/svg" xmlns:xlink="http://www.w3.org/1999/xlink" x="0px" y="0px"
	 viewBox="0 0 51.4 51.4" style="enable-background:new 0 0 51.4 51.4;" xml:space="preserve">

<g id="Icon_feather-menu" transform="translate(1.5 1.5)">
	<g id="Path_344">
		<path class="st0" d="M35.5,27.4H2.9c-1.49,0-2.7-1.21-2.7-2.7c0-1.49,1.21-2.7,2.7-2.7h32.6c1.49,0,2.7,1.21,2.7,2.7
			C38.2,26.19,36.99,27.4,35.5,27.4z"/>
	</g>
	<g id="Path_345">
		<path class="st0" d="M45.4,8.8H2.9c-1.49,0-2.7-1.21-2.7-2.7s1.21-2.7,2.7-2.7h42.5c1.49,0,2.7,1.21,2.7,2.7S46.89,8.8,45.4,8.8z"
			/>
	</g>
	<g id="Path_346">
		<path class="st0" d="M24.2,45.9H2.9c-1.49,0-2.7-1.21-2.7-2.7s1.21-2.7,2.7-2.7h21.3c1.49,0,2.7,1.21,2.7,2.7
			S25.69,45.9,24.2,45.9z"/>
	</g>
</g>
</svg>
