<?xml version="1.0" encoding="utf-8"?>
<!-- Generator: Adobe Illustrator 26.0.0, SVG Export Plug-In . SVG Version: 6.00 Build 0)  -->
<svg version="1.1" id="Layer_1" xmlns="http://www.w3.org/2000/svg" xmlns:xlink="http://www.w3.org/1999/xlink" x="0px" y="0px"
	 viewBox="0 0 100 100" style="enable-background:new 0 0 100 100;" xml:space="preserve">

<g>
	<defs>
		<rect id="SVGID_1_" x="1.51" y="1.13" width="96.98" height="97.74"/>
	</defs>
	<clipPath id="SVGID_00000083787850371171425660000002627239824559028871_">
		<use xlink:href="#SVGID_1_"  style="overflow:visible;"/>
	</clipPath>
	<g id="Group_425" style="clip-path:url(#SVGID_00000083787850371171425660000002627239824559028871_);">
		<path id="Path_705" class="st1" d="M1.51,98.87l6.55-25.02c-13.4-23.17-5.47-52.82,17.7-66.21s52.82-5.47,66.21,17.7
			s5.47,52.82-17.7,66.21c-14.95,8.64-33.37,8.68-48.35,0.1L1.51,98.87z M26.8,84.97l1.17,0.72c19.91,12.18,45.94,5.92,58.12-14
			s5.92-45.94-14-58.12s-45.94-5.92-58.12,14c-8.29,13.55-8.28,30.61,0.02,44.16l0.69,1.13l-4.44,16.97L26.8,84.97z"/>
		<path id="Path_706" class="st1" d="M49.68,59.43c-5.26,0-9.53-4.26-9.53-9.52c0-5.26,4.26-9.53,9.52-9.53
			c5.26,0,9.53,4.26,9.53,9.52c0,0,0,0,0,0C59.2,55.16,54.94,59.42,49.68,59.43 M49.68,45.32c-2.53,0-4.58,2.05-4.58,4.58
			c0,2.53,2.05,4.58,4.58,4.58c2.53,0,4.58-2.05,4.58-4.58C54.26,47.38,52.21,45.33,49.68,45.32"/>
		<path id="Path_707" class="st1" d="M72.61,59.43c-5.26,0-9.52-4.26-9.52-9.52s4.26-9.52,9.52-9.52c5.26,0,9.52,4.26,9.52,9.52
			C82.13,55.16,77.87,59.42,72.61,59.43 M72.61,45.32c-2.53,0-4.58,2.05-4.58,4.58s2.05,4.58,4.58,4.58c2.53,0,4.58-2.05,4.58-4.58
			C77.19,47.38,75.14,45.33,72.61,45.32"/>
		<path id="Path_708" class="st1" d="M25.59,59.43c-5.26,0-9.52-4.26-9.52-9.52c0-5.26,4.26-9.52,9.52-9.52s9.52,4.26,9.52,9.52
			C35.11,55.16,30.85,59.42,25.59,59.43 M25.59,45.32c-2.53,0-4.58,2.05-4.58,4.58c0,2.53,2.05,4.58,4.58,4.58
			c2.53,0,4.58-2.05,4.58-4.58C30.17,47.38,28.12,45.33,25.59,45.32"/>
	</g>
</g>
</svg>
