<?xml version="1.0" encoding="utf-8"?>
<!-- Generator: Adobe Illustrator 26.0.0, SVG Export Plug-In . SVG Version: 6.00 Build 0)  -->
<svg version="1.1" id="Layer_1" xmlns="http://www.w3.org/2000/svg" xmlns:xlink="http://www.w3.org/1999/xlink" x="0px" y="0px"
	 viewBox="0 0 47.3 51.4" style="enable-background:new 0 0 47.3 51.4;" xml:space="preserve">

<g id="Group_417" transform="translate(352.503 0.236)">
	<g>
		<g>
			<defs>
				<rect id="SVGID_1_" x="-352" y="0.1" width="46.2" height="50.8"/>
			</defs>
			<clipPath id="SVGID_00000020385315483533636730000009123859352426090164_">
				<use xlink:href="#SVGID_1_"  style="overflow:visible;"/>
			</clipPath>
			<g id="Group_416" style="clip-path:url(#SVGID_00000020385315483533636730000009123859352426090164_);">
				<path id="Path_693" d="M-328.9,39.4c-6.8,0-13.6,0-20.4,0c-1.9,0-3-1.4-2.5-3c0.1-0.3,0.3-0.7,0.6-0.9c2.8-2.6,4.7-6.1,5.2-10
					c0.5-2.9,0.9-5.9,0.9-8.9c-0.1-6.4,3.6-12.3,9.4-14.9c8.1-3.8,17.6-0.3,21.4,7.8c1,2.2,1.5,4.5,1.5,6.9
					c-0.1,4.1,0.6,8.3,1.8,12.2c0.8,2.6,2.3,4.9,4.3,6.8c0.8,0.6,1,1.7,0.6,2.5c-0.4,1-1.3,1.6-2.4,1.5
					C-315.2,39.3-322,39.3-328.9,39.4 M-313.2,34.7c-0.7-1.6-1.4-3.1-2-4.6c-1.5-4.6-2.2-9.4-2.2-14.3c-0.2-6.4-5.5-11.4-11.9-11.1
					c-6.1,0.2-11,5.2-11.1,11.3c0.1,4.9-0.7,9.9-2.3,14.5c-0.5,1.4-1.2,2.7-1.8,4.1L-313.2,34.7z"/>
				<path id="Path_694" d="M-329.4,50.9c-2.2-0.1-4.1-1.3-5.3-3.2c-0.8-1-0.6-2.4,0.4-3.2c0,0,0.1,0,0.1-0.1
					c0.9-0.7,2.3-0.6,3.1,0.4c0.1,0.1,0.1,0.2,0.2,0.2c0.7,1.2,2.2,1.6,3.4,0.9c0.4-0.2,0.7-0.5,0.9-0.9c0.6-1,2-1.3,3-0.7
					c0.1,0,0.1,0.1,0.2,0.1c1,0.7,1.3,2.1,0.6,3.2c0,0,0,0.1-0.1,0.1C-324.4,49.8-326.9,51-329.4,50.9"/>
			</g>
		</g>
	</g>
</g>
</svg>
