<?xml version="1.0" encoding="utf-8"?>
<!-- Generator: Adobe Illustrator 26.0.0, SVG Export Plug-In . SVG Version: 6.00 Build 0)  -->
<svg version="1.1" id="Layer_1" xmlns="http://www.w3.org/2000/svg" xmlns:xlink="http://www.w3.org/1999/xlink" x="0px" y="0px"
	 viewBox="0 0 100 100" style="enable-background:new 0 0 100 100;" xml:space="preserve">

<g id="Group_637" transform="translate(282.494 73.286)">
	<g>
		<defs>
			<rect id="SVGID_1_" x="35.85" y="4.5" width="13.3" height="17.72"/>
		</defs>
		<clipPath id="SVGID_00000143605615407099094290000011865272264820081824_">
			<use xlink:href="#SVGID_1_"  style="overflow:visible;"/>
		</clipPath>
		<g id="Group_636" style="clip-path:url(#SVGID_00000143605615407099094290000011865272264820081824_);">
			<path id="Path_1261" class="st1" d="M40.51,6.69c0.19-1.42,0.89-2.2,1.99-2.2c1.09,0,1.79,0.76,1.99,2.21h1.46
				c0.46,0,0.91,0,1.37,0c0.94-0.07,1.75,0.63,1.83,1.56c0.01,0.09,0.01,0.17,0,0.26c0,2.21,0,4.42,0,6.64c0,1.72,0,3.44,0,5.16
				c0.11,0.93-0.55,1.77-1.48,1.89c-0.14,0.02-0.28,0.02-0.42,0H37.7c-0.91,0.11-1.74-0.55-1.85-1.46c-0.02-0.13-0.01-0.26,0-0.39
				c0-3.94,0-7.89,0-11.83c-0.07-0.93,0.62-1.75,1.56-1.82c0.09-0.01,0.18-0.01,0.27,0c0.83,0,1.66,0,2.49,0
				C40.28,6.71,40.4,6.7,40.51,6.69 M39.14,7.88h-1.48c-0.5,0-0.65,0.14-0.65,0.63c0,3.97,0,7.93,0,11.9c0,0.52,0.15,0.66,0.67,0.66
				h9.66c0.53,0,0.65-0.12,0.65-0.66c0-2.64,0-5.29,0-7.93c0-1.33,0-2.67,0-4c0-0.47-0.13-0.59-0.6-0.59c-0.42,0-0.84,0.01-1.26,0
				c-0.22-0.01-0.31,0.07-0.29,0.29c0.01,0.11,0,0.22,0,0.32c0.03,0.23-0.12,0.44-0.35,0.47c-0.04,0.01-0.07,0.01-0.11,0
				c-1.91,0-3.82,0-5.73,0c-0.23,0.02-0.44-0.15-0.47-0.38c0-0.02,0-0.04,0-0.06C39.16,8.33,39.15,8.13,39.14,7.88 M43.29,6.45
				c0.02-0.41-0.29-0.76-0.7-0.78c-0.03,0-0.06,0-0.09,0c-0.42-0.02-0.79,0.3-0.81,0.73c0,0.03,0,0.05,0,0.08
				c-0.01,0.43,0.34,0.78,0.77,0.79c0.01,0,0.02,0,0.03,0c0.42,0.02,0.78-0.31,0.8-0.73C43.3,6.5,43.3,6.47,43.29,6.45"/>
			<path id="Path_1262" class="st1" d="M43.61,17.26c-0.6,0-1.2,0.01-1.8,0c-0.38,0-0.45-0.11-0.45-0.56s0.07-0.59,0.43-0.59
				c1.21-0.01,2.42-0.01,3.64,0c0.27,0,0.43,0.13,0.41,0.43c-0.01,0.11-0.01,0.22,0,0.32c0.01,0.29-0.13,0.42-0.42,0.41
				C44.82,17.27,44.22,17.27,43.61,17.26"/>
			<path id="Path_1263" class="st1" d="M40.08,12.6c0.52-0.52,0.98-0.99,1.44-1.46c0.32-0.32,0.37-0.32,0.67-0.03
				c0.4,0.4,0.4,0.42,0.08,0.74c-0.63,0.63-1.27,1.24-1.9,1.87c-0.2,0.2-0.34,0.21-0.53,0c-0.34-0.36-0.68-0.71-1.04-1.05
				c-0.32-0.3-0.04-0.45,0.13-0.64s0.35-0.36,0.59-0.08C39.67,12.18,39.86,12.37,40.08,12.6"/>
			<path id="Path_1264" class="st1" d="M41.81,13.79c0.31-0.3,0.61-0.6,0.93-0.89c0.11-0.07,0.23-0.11,0.36-0.11
				c0.76-0.01,1.51-0.01,2.27,0c0.4,0,0.46,0.08,0.45,0.63c0,0.45-0.05,0.5-0.46,0.5c-1.08,0-2.16,0-3.24,0
				c-0.09,0-0.18-0.01-0.27-0.03L41.81,13.79"/>
			<path id="Path_1265" class="st1" d="M40.57,16.68c0.02,0.45-0.33,0.82-0.78,0.84c-0.02,0-0.04,0-0.06,0
				c-0.45,0-0.82-0.37-0.83-0.82c0-0.47,0.37-0.85,0.83-0.86c0.46-0.01,0.83,0.36,0.84,0.81C40.57,16.66,40.57,16.67,40.57,16.68"/>
		</g>
	</g>
</g>
<g id="Group_639" transform="translate(315.254 74.522)">
	<g>
		<defs>
			<rect id="SVGID_00000008847827032769674590000007997216263430346373_" x="35.85" y="4.5" width="16.48" height="15.76"/>
		</defs>
		<clipPath id="SVGID_00000018952010745360355330000010123974214402192317_">
			<use xlink:href="#SVGID_00000008847827032769674590000007997216263430346373_"  style="overflow:visible;"/>
		</clipPath>
		<g id="Group_638" style="clip-path:url(#SVGID_00000018952010745360355330000010123974214402192317_);">
			<path id="Path_1266" class="st1" d="M38.64,19.21c0.12-0.73,0.26-1.54,0.4-2.35c0.11-0.64,0.24-1.27,0.32-1.91
				c0.01-0.21-0.06-0.41-0.2-0.56c-0.95-0.95-1.91-1.89-2.89-2.82c-0.34-0.25-0.49-0.69-0.37-1.1c0.12-0.39,0.48-0.66,0.89-0.66
				c1.37-0.19,2.74-0.4,4.1-0.64c0.19-0.04,0.35-0.16,0.45-0.33c0.61-1.18,1.2-2.38,1.77-3.58c0.2-0.43,0.46-0.77,0.97-0.77
				c0.52,0,0.79,0.34,1,0.78c0.57,1.2,1.16,2.39,1.77,3.58c0.1,0.16,0.27,0.28,0.46,0.32c1.39,0.23,2.79,0.45,4.18,0.65
				c0.37,0.02,0.68,0.27,0.79,0.62c0.14,0.36,0.04,0.76-0.25,1.02c-0.92,0.89-1.81,1.8-2.76,2.65c-0.38,0.29-0.54,0.79-0.4,1.25
				c0.25,1.21,0.44,2.43,0.64,3.64c0.12,0.41-0.04,0.85-0.39,1.09c-0.34,0.22-0.79,0.21-1.12-0.03c-1.19-0.63-2.39-1.23-3.58-1.86
				c-0.2-0.13-0.45-0.13-0.65-0.01c-1.22,0.65-2.46,1.28-3.69,1.92c-0.45,0.28-1.03,0.14-1.31-0.31
				C38.67,19.64,38.62,19.42,38.64,19.21"/>
		</g>
	</g>
</g>
<g id="Group_643" transform="translate(71.212 76.286)">
	<g>
		<defs>
			<rect id="SVGID_00000016054240692484222110000009205311825192497029_" x="-68.86" y="-73.99" width="95.3" height="95.42"/>
		</defs>
		<clipPath id="SVGID_00000178180434929541311640000008527765900935388588_">
			<use xlink:href="#SVGID_00000016054240692484222110000009205311825192497029_"  style="overflow:visible;"/>
		</clipPath>
		<g id="Group_642" style="clip-path:url(#SVGID_00000178180434929541311640000008527765900935388588_);">
			<path id="Path_1269" class="st4" d="M19-24C12.62-33.66,4.18-41.78-5.71-47.79c-2.38-1.63-5.25-2.4-8.13-2.19
				c-3.56,0.29-7.14,0.29-10.7,0c-6.05-0.53-12.06,1.35-16.74,5.22c-16.07,10-26.33,27.14-27.55,46.03
				c-1.21,9.84,5.78,18.8,15.62,20.02c0.96,0.12,1.93,0.16,2.9,0.12c9.71,0,19.42,0,29.13,0c9.96,0,19.92,0.05,29.88,0
				c9.61,0.17,17.55-7.48,17.72-17.09c0-0.03,0-0.05,0-0.08c0.26-9.93-2.32-19.73-7.44-28.25 M-8.17-1.75
				C-9.4,0-11.1,1.37-13.08,2.19c-1.6,0.69-3.3,1.14-5.04,1.31v5.61h-5.01V3.66c-2.1-0.12-4.19-0.48-6.21-1.06
				c-2.23-0.58-4.34-1.57-6.21-2.92l2.74-6.08c1.62,1.14,3.4,2.02,5.28,2.62c1.42,0.47,2.9,0.78,4.39,0.93v-8.38
				c-1.23-0.29-2.47-0.62-3.72-1c-1.41-0.43-2.75-1.03-4-1.8c-1.2-0.72-2.19-1.73-2.9-2.94c-0.76-1.4-1.13-2.97-1.07-4.56
				c-0.01-1.94,0.54-3.84,1.6-5.46c1.2-1.76,2.9-3.13,4.87-3.94c1.66-0.71,3.42-1.15,5.21-1.31v-5.55h5.06v5.47
				c1.51,0.11,3,0.35,4.47,0.71c1.98,0.46,3.87,1.23,5.61,2.29l-2.54,6.09c-1.51-0.87-3.12-1.55-4.8-2.02
				c-0.89-0.24-1.79-0.42-2.7-0.54v8.5c1.21,0.28,2.4,0.61,3.6,0.99c1.37,0.44,2.7,1.04,3.94,1.77c1.19,0.71,2.19,1.71,2.91,2.9
				c0.79,1.37,1.18,2.93,1.12,4.51c0.02,1.92-0.54,3.79-1.6,5.39 M-15.65-8.74c-0.75-0.53-1.57-0.93-2.45-1.19v6.8
				c0.24-0.06,0.47-0.12,0.68-0.19c0.83-0.24,1.58-0.69,2.17-1.32c0.46-0.53,0.71-1.22,0.7-1.92C-14.55-7.43-14.96-8.24-15.65-8.74
				 M-26.15-23.96c-0.44,0.57-0.68,1.27-0.67,1.99c-0.02,0.88,0.39,1.72,1.1,2.24c0.78,0.57,1.66,0.99,2.59,1.23v-7.14
				c-0.3,0.06-0.6,0.15-0.9,0.26C-24.86-25.12-25.6-24.63-26.15-23.96"/>
			<path id="Path_1270" class="st4" d="M-21.2-56.18c-3.2,0-6.48,0.13-9.71-0.07c-1.17-0.1-2.25-0.65-3.02-1.55
				c-2.53-3.49-4.92-7.09-7.14-10.78c-0.76-1.12-1-2.51-0.66-3.82c0.92-1,2.22-1.55,3.57-1.52c11.35-0.08,22.73-0.08,34.1-0.04
				c3.84,0,4.96,2.11,2.91,5.29c-2.4,3.7-4.8,7.39-7.33,10.96c-0.71,0.84-1.72,1.36-2.81,1.45c-3.31,0.18-6.64,0.06-9.95,0.06"/>
		</g>
	</g>
</g>
<g id="Group_648" transform="translate(318.958 -0.001)">
	<g>
		<defs>
			<rect id="SVGID_00000136399238602905083460000001292209751855231136_" x="35.85" y="4.5" width="10.52" height="12.31"/>
		</defs>
		<clipPath id="SVGID_00000082337380279250169040000003781034130804231096_">
			<use xlink:href="#SVGID_00000136399238602905083460000001292209751855231136_"  style="overflow:visible;"/>
		</clipPath>
		
			<g id="Group_647" transform="translate(0 0.001)" style="clip-path:url(#SVGID_00000082337380279250169040000003781034130804231096_);">
			<path id="Path_1274" class="st6" d="M46.17,11.14c-0.29-0.32-0.79-0.35-1.11-0.05c0,0,0,0,0,0l-3.15,2.88V5.28
				c-0.02-0.43-0.38-0.77-0.81-0.76c-0.41,0.01-0.74,0.35-0.76,0.76v8.69l-3.16-2.88c-0.32-0.29-0.82-0.27-1.11,0.05
				c-0.29,0.32-0.27,0.82,0.05,1.11l0,0l5,4.56l5-4.56C46.43,11.96,46.45,11.46,46.17,11.14"/>
		</g>
	</g>
</g>
</svg>
