<?xml version="1.0" encoding="utf-8"?>
<!-- Generator: Adobe Illustrator 26.0.0, SVG Export Plug-In . SVG Version: 6.00 Build 0)  -->
<svg version="1.1" id="Layer_1" xmlns="http://www.w3.org/2000/svg" xmlns:xlink="http://www.w3.org/1999/xlink" x="0px" y="0px"
	 viewBox="0 0 97.8 97.8" style="enable-background:new 0 0 97.8 97.8;" xml:space="preserve">
<path class="st0" d="M50.5,8.3c2.1,0.4,4.2,0.9,6.2,1.6c7.1,2.7,12.2,9,13.2,16.4c1.5,8.9-2.8,17.7-10.7,22
	C51.5,52.4,43.8,52,36.6,47c-5.6-3.7-9-10.1-9-16.8c-0.1-7.8,3.2-14,9.7-18.4c2.8-1.9,6.1-3.1,9.5-3.3c0.2,0,0.3-0.1,0.5-0.1
	L50.5,8.3z M50.1,90.4C39.5,90.3,31,87.6,23.5,82c-4.4-3.3-8.1-7.3-11-12c-0.5-0.6-0.5-1.5-0.2-2.2c3.4-7.5,10.1-13,18.1-14.9
	c0.6-0.2,1.3-0.3,2-0.4c1.2-0.2,2.5,0.1,3.5,0.9c4.1,2.9,9,4.3,14.1,4.1c3.9,0,7.7-1.2,10.9-3.5c2.4-1.7,4.6-1.6,7.2-0.9
	C75,55,80.9,59.5,84.4,65.7c1.6,2.7,1.7,2.8-0.1,5.5c-4.1,6.4-9.9,11.5-16.8,14.9C62.2,88.8,56.2,90.3,50.1,90.4 M48.9,97
	C22.7,97,1.3,75.6,1.3,49.4S22.7,1.8,48.9,1.8s47.6,21.4,47.6,47.6S75.1,97,48.9,97z M48.9,4.8c-24.6,0-44.6,20-44.6,44.6
	C4.3,74,24.3,94,48.9,94c24.6,0,44.6-20,44.6-44.6C93.5,24.8,73.5,4.8,48.9,4.8z"/>
</svg>
