<?xml version="1.0" encoding="utf-8"?>
<!-- Generator: Adobe Illustrator 26.0.0, SVG Export Plug-In . SVG Version: 6.00 Build 0)  -->
<svg version="1.1" id="Layer_1" xmlns="http://www.w3.org/2000/svg" xmlns:xlink="http://www.w3.org/1999/xlink" x="0px" y="0px"
	 viewBox="0 0 100 100" style="enable-background:new 0 0 100 100;" xml:space="preserve">

<g>
	<defs>
		<rect id="SVGID_1_" x="1.66" y="2.16" width="96.67" height="95.69"/>
	</defs>
	<clipPath id="SVGID_00000088820391130615461660000012001807098998961808_">
		<use xlink:href="#SVGID_1_"  style="overflow:visible;"/>
	</clipPath>
	<g id="Group_449" style="clip-path:url(#SVGID_00000088820391130615461660000012001807098998961808_);">
		<path id="Path_722" d="M88.31,92.1c-0.92,1.56-1.72,3.06-2.68,4.47c-0.38,0.58-1.17,1.31-1.71,1.26
			c-0.55-0.04-1.28-0.84-1.58-1.47c-1.77-3.83-3.42-7.69-5.16-11.51c-0.26-0.65-0.68-1.22-1.22-1.67c-1.22-0.87-2.2-0.97-2.94,0.81
			c-1.68,4.08-3.54,8.1-5.41,12.11c-0.33,0.71-1.11,1.77-1.58,1.71c-0.84-0.24-1.55-0.8-1.98-1.56c-2.56-4.15-2.52-4.13-7.1-3.24
			c-0.82,0.16-2.07,0.17-2.49-0.31s-0.06-1.65,0.12-2.49c0.26-0.83,0.58-1.64,0.96-2.42h-2.5c-13.64,0-27.28,0-40.92,0
			c-5.19,0.59-9.88-3.15-10.47-8.34c-0.08-0.71-0.08-1.43,0-2.15c0-21.5,0-42.99,0-64.49C1.01,7.59,4.72,2.81,9.97,2.15
			c0.81-0.1,1.63-0.1,2.45,0.01c16.64,0,33.28,0,49.92,0c5.19-0.58,9.86,3.15,10.45,8.33c0.08,0.72,0.08,1.44,0,2.16
			c0,8,0,16,0,23.99c0,2.56,0.8,3.06,3.12,1.94c3.62-1.72,4.34-1.63,6.68,1.46c0.74,1.05,2,1.61,3.27,1.45
			c3.44-0.1,4.23,0.5,4.9,3.95c0.19,1.34,1.11,2.46,2.38,2.92c3.15,1.41,3.58,2.3,2.7,5.7c-0.43,1.28-0.1,2.7,0.85,3.66
			c2.23,2.58,2.22,3.72,0,6.31c-0.94,0.97-1.26,2.39-0.82,3.67c0.87,3.38,0.41,4.19-2.73,5.7c-2.28,1.25-3.29,3.98-2.38,6.41
			c1.53,3.53,3.15,7.02,4.64,10.58c0.35,0.72,0.38,1.55,0.08,2.3c-0.36,0.46-1.51,0.5-2.27,0.4c-1.53-0.2-3.06-0.61-4.85-0.99
			 M66.47,39.19c3.3-2.6,3.3-2.6,3.3-6.31c0-6.71,0-13.43,0-20.14c0.6-3.59-1.82-6.98-5.41-7.58c-0.72-0.12-1.45-0.12-2.17,0
			c-16.57,0-33.14,0-49.7,0c-5.46,0-7.8,2.35-7.8,7.85c0,21.35,0,42.7,0,64.06c0,5.36,2.37,7.74,7.68,7.74c14,0,28,0,41.99,0
			c3,0,3,0,3.77-3.12h-4.21c-9.86,0-19.71,0.04-29.56,0c-9.85-0.04-7.01,1.07-14.25-5.96c-1.42-1.32-2.2-3.19-2.12-5.13
			c0.05-15.35-0.03-30.71,0.04-46.06c0.05-9.8-1.15-6.76,5.74-13.91c1.4-1.55,3.41-2.39,5.49-2.3c10.72,0.07,21.43,0,32.15,0.04
			c8.4,0.04,6.02-0.82,12.25,5.08c1.99,1.76,3.06,4.34,2.88,6.99c-0.16,6.12-0.05,12.25-0.05,18.75 M53.34,60.95
			c2.66,1.75,3.68,5.16,2.41,8.08c-0.13,0.31,0.52,1.32,0.99,1.47c2.49,0.68,4.24,2.91,4.33,5.49c0.1,0.45,0.25,0.9,0.45,1.32
			c3.02-0.87,6.23,0.48,7.72,3.25c0.17,0.29,1.44,0.28,1.96,0c1.85-1.34,4.34-1.35,6.2-0.03c1.29,0.9,2.19,0.57,2.93-0.73
			c0.98-1.92,3.11-2.95,5.22-2.54c1.5,0.2,2.28-0.28,2.38-1.86c0.09-2.21,1.62-4.11,3.76-4.67c0.57-0.25,1.12-0.54,1.65-0.86
			c-0.77-2.63-1.68-5.32,0.87-7.51c1.18-1.01,1.15-1.96,0-3.01c-1.65-1.37-2.2-3.67-1.35-5.63c0.18-0.62,0.31-1.24,0.38-1.88
			c-1.41-0.54-2.73-1.32-3.88-2.3c-0.92-1.12-1.02-2.89-1.72-4.24c-0.47-0.53-1.17-0.81-1.88-0.77c-2.26,0.38-4.5-0.73-5.57-2.76
			c-0.77-1.34-1.7-1.31-2.8-0.57c-1.76,1.35-4.21,1.34-5.97-0.02c-1.31-0.91-2.19-0.49-2.94,0.77c-1.02,1.88-3.12,2.91-5.23,2.54
			c-0.61-0.02-1.22,0-1.83,0.07c-1.31,4.29-1.34,4.25-5.04,6.82c-0.45,0.53-0.62,1.24-0.47,1.91c0.82,1.87,0.47,4.05-0.89,5.58
			C54.48,59.42,54.04,60.08,53.34,60.95 M36.8,20.15c4.13,0,8.26,0.02,12.4,0c2.14,0,3.32-1.03,3.36-2.75
			c0.04-1.82-1.18-2.92-3.39-2.93c-8.26-0.02-16.53-0.02-24.79,0c-2.09,0-3.35,1.07-3.39,2.74c-0.05,1.74,1.29,2.93,3.43,2.95
			C28.54,20.18,32.67,20.15,36.8,20.15 M36.63,38c6.34,0,12.69,0,19.03,0c0.7,0.07,1.41-0.02,2.08-0.26
			c0.49-0.34,0.79-0.9,0.82-1.49c0-0.38-0.59-0.9-1.03-1.12c-0.48-0.14-0.98-0.18-1.47-0.11c-12.83,0-25.66,0-38.49,0
			c-0.49-0.08-0.99-0.05-1.47,0.1c-0.49,0.28-1.11,0.82-1.13,1.28c0.09,0.6,0.45,1.12,0.97,1.41c0.6,0.21,1.25,0.27,1.88,0.2
			c6.27,0,12.54,0,18.82,0 M36.68,26.33h-1.91c-5.77,0-11.55,0-17.32,0c-1.12,0-2.56-0.13-2.51,1.53c0.05,1.6,1.46,1.45,2.59,1.5
			c0.14,0,0.28,0,0.43,0c12.54,0,25.09,0,37.63,0c0.7,0.07,1.42-0.02,2.09-0.24c0.5-0.32,0.84-0.84,0.91-1.44
			c0.02-0.38-0.54-1.01-0.96-1.15c-0.69-0.18-1.4-0.24-2.11-0.18c-6.27,0-12.54,0-18.82,0 M31.29,63.87h14.33
			c1.08,0,2.38,0.09,2.43-1.39c0.05-1.61-1.29-1.6-2.46-1.6c-9.41,0-18.82-0.03-28.23,0.06c-0.83,0-2.27,0.81-2.35,1.39
			c-0.23,1.63,1.24,1.53,2.39,1.53c4.63,0,9.27,0,13.9,0 M31.34,46.61h14.12c1.15,0,2.55,0.11,2.59-1.47
			c0.04-1.58-1.34-1.53-2.51-1.53H17.52c-1.15,0-2.56-0.17-2.59,1.45s1.34,1.53,2.51,1.53h13.91 M31.41,55.2c4.78,0,9.57,0,14.33,0
			c1.15,0,2.35-0.07,2.32-1.53c-0.03-1.46-1.24-1.49-2.37-1.49c-9.48,0-18.97,0-28.45,0c-1.15,0-2.33,0.1-2.32,1.53
			c0.02,1.43,1.26,1.46,2.37,1.46c4.71,0,9.41,0,14.12,0 M84.08,92.91c1.03-1.38,1.7-3.12,2.92-3.67c1.21-0.55,2.94,0.1,4.47,0.23
			c0.01-0.19-0.01-0.38-0.05-0.56c-0.92-2.08-1.84-4.16-2.76-6.23c-1.42-3.17-4.04-3.49-6.2-0.8c-0.66,0.82-1.41,1.58-2.2,2.45
			L84.08,92.91 M65.57,93.4l3.93-8.83l-1.15,0.87c-0.85-1.4-1.63-2.87-2.58-4.21c-0.86-1.2-3.15-1.49-3.67-0.45
			c-1.39,2.8-2.58,5.71-3.83,8.57l0.09,0.56C62.2,87.91,64.38,89.4,65.57,93.4 M25.78,72.55c2.85,0,5.71,0.1,8.55-0.07
			c0.77-0.05,1.5-0.89,2.25-1.36c-0.71-0.52-1.41-1.48-2.13-1.49c-5.84-0.12-11.69-0.12-17.54,0c-0.69,0-1.35,0.9-2.02,1.38
			c0.7,0.52,1.39,1.43,2.12,1.48C19.92,72.66,22.85,72.56,25.78,72.55"/>
		<path id="Path_723" d="M74.49,74.89c-7.76,0.05-14.09-6.19-14.14-13.95c-0.05-7.76,6.19-14.09,13.95-14.14
			c7.75-0.05,14.08,6.19,14.14,13.94C88.42,68.48,82.22,74.78,74.49,74.89 M69.64,65.96c0.08,1.63,0.79,2.12,1.94,1.34
			c1.57-1.29,3.83-1.33,5.45-0.1c1.49,0.98,2.45,0.29,1.99-1.43c-0.64-1.84,0.01-3.89,1.61-5.02c1.35-1.15,0.98-2.3-0.77-2.36
			c-1.96,0.05-3.7-1.23-4.25-3.11c-0.65-1.53-1.8-1.62-2.37-0.15c-0.58,2.03-2.48,3.4-4.59,3.3c-1.26,0.03-1.89,1.07-0.77,2.02
			c1.86,1.6,2.87,3.3,1.78,5.5"/>
	</g>
</g>
</svg>
