<?xml version="1.0" encoding="utf-8"?>
<!-- Generator: Adobe Illustrator 26.0.0, SVG Export Plug-In . SVG Version: 6.00 Build 0)  -->
<svg version="1.1" id="Layer_1" xmlns="http://www.w3.org/2000/svg" xmlns:xlink="http://www.w3.org/1999/xlink" x="0px" y="0px"
	 viewBox="0 0 51.4 51.4" style="enable-background:new 0 0 51.4 51.4;" xml:space="preserve">

<path id="Icon_awesome-search" class="st0" d="M50.4,44.2l-9.9-9.9c-0.4-0.4-1-0.7-1.7-0.7h-1.6c7-9,5.4-21.9-3.6-28.9
	S11.7-0.7,4.7,8.3s-5.4,21.9,3.6,28.9c7.4,5.8,17.9,5.8,25.3,0v1.6c0,0.6,0.2,1.2,0.7,1.7l9.9,9.9c0.9,0.9,2.4,0.9,3.3,0l0,0
	l2.8-2.8C51.3,46.6,51.3,45.1,50.4,44.2z M21,33.6c-7,0-12.7-5.7-12.7-12.7S14,8.2,21,8.2s12.7,5.7,12.7,12.7
	C33.6,27.9,27.9,33.6,21,33.6L21,33.6z"/>
</svg>
