<?xml version="1.0" encoding="utf-8"?>
<!-- Generator: Adobe Illustrator 26.0.0, SVG Export Plug-In . SVG Version: 6.00 Build 0)  -->
<svg version="1.1" id="Layer_1" xmlns="http://www.w3.org/2000/svg" xmlns:xlink="http://www.w3.org/1999/xlink" x="0px" y="0px"
	 viewBox="0 0 100 100" style="enable-background:new 0 0 100 100;" xml:space="preserve">

<g id="Group_639" transform="translate(315.254 74.522)">
	<g>
		<defs>
			<rect id="SVGID_1_" x="-313.3" y="-70.48" width="96.09" height="91.91"/>
		</defs>
		<clipPath id="SVGID_00000039848953815735394330000014488144410659813010_">
			<use xlink:href="#SVGID_1_"  style="overflow:visible;"/>
		</clipPath>
		<g id="Group_638" style="clip-path:url(#SVGID_00000039848953815735394330000014488144410659813010_);">
			<path id="Path_1266" class="st1" d="M-297.04,15.28c0.73-4.24,1.54-8.97,2.33-13.7c0.64-3.7,1.41-7.39,1.84-11.11
				c0.06-1.21-0.37-2.4-1.19-3.29c-5.52-5.56-11.13-11.04-16.83-16.44c-1.98-1.49-2.84-4.03-2.16-6.41
				c0.69-2.29,2.79-3.86,5.18-3.86c7.99-1.12,15.96-2.35,23.9-3.7c1.1-0.25,2.05-0.94,2.64-1.91c3.56-6.91,7-13.86,10.33-20.87
				c1.19-2.48,2.68-4.46,5.65-4.46c3.06,0,4.61,1.96,5.83,4.54c3.33,7,6.77,13.95,10.3,20.87c0.61,0.95,1.57,1.62,2.68,1.84
				c8.11,1.37,16.24,2.63,24.39,3.8c2.14,0.11,3.97,1.55,4.59,3.6c0.79,2.09,0.21,4.46-1.45,5.96
				c-5.33,5.19-10.58,10.49-16.09,15.48c-2.21,1.71-3.13,4.6-2.33,7.27c1.48,7.03,2.54,14.16,3.74,21.25
				c0.7,2.39-0.22,4.95-2.29,6.34c-2,1.29-4.58,1.23-6.52-0.16c-6.93-3.66-13.94-7.17-20.88-10.82c-1.14-0.74-2.61-0.75-3.77-0.04
				c-7.13,3.8-14.32,7.47-21.49,11.19c-2.6,1.61-6.01,0.82-7.62-1.78C-296.91,17.8-297.19,16.54-297.04,15.28"/>
		</g>
	</g>
</g>
</svg>
