<?xml version="1.0" encoding="utf-8"?>
<!-- Generator: Adobe Illustrator 27.0.0, SVG Export Plug-In . SVG Version: 6.00 Build 0)  -->
<svg version="1.1" id="Layer_1" xmlns="http://www.w3.org/2000/svg" xmlns:xlink="http://www.w3.org/1999/xlink" x="0px" y="0px"
	 viewBox="0 0 100 100" style="enable-background:new 0 0 100 100;" xml:space="preserve">
<g>
	<path d="M49.9,70.9c-5.1,0-10.2-0.1-15.3,0c-4.6,0.1-8.4-3.7-8.3-8.3c0.2-7.5,0-15,0-22.5c0-4.9,3.3-8.4,8.2-8.1
		c3.1,0.2,4.7-0.7,5.5-3.7c0.4-1.5,1.2-2.9,1.8-4.4c0.5-1.3,1.4-1.9,2.8-1.9c3.6,0,7.1,0,10.7,0c1.5,0,2.4,0.6,2.9,1.9
		c1,2.3,2,4.6,3,7c0.3,0.7,0.7,1,1.5,1c1.9,0,3.8-0.1,5.6,0.4c3.3,0.9,5.5,3.9,5.5,7.3c0,7.8,0,15.6,0,23.5c0,4.4-3.4,7.7-7.8,7.7
		C60.6,70.9,55.2,70.9,49.9,70.9z M62.4,51.4C62.4,44.5,57,39,50,39c-6.9,0-12.4,5.4-12.4,12.3c0,7,5.4,12.5,12.3,12.5
		C56.9,63.9,62.4,58.4,62.4,51.4z"/>
	<path d="M78.6,15.2c0.6-0.7,1.2-1.4,1.7-2.1c0.8-0.9,1.8-1.1,2.8-0.7c1.1,0.3,1.6,1.1,1.8,2.3c0.4,2.9,0.9,5.8,1.3,8.7
		c0.4,2.9-0.8,4.2-3.7,3.8c-3-0.4-5.9-0.8-8.9-1.4c-0.8-0.2-1.8-0.9-2.2-1.6c-0.5-0.9-0.2-2,0.6-2.8c0.8-0.8,1.6-1.5,2.6-2.5
		c-1.1-0.8-2.1-1.5-3.1-2.2C49.3,2.1,18.8,13.6,11.8,39.4c-0.9,3.3-1.1,6.7-1.4,10.1c-0.2,1.7-1,2.9-2.3,3c-1.8,0.2-3-1-3-3
		c0-5.5,0.9-10.8,3.1-15.9C14.7,18,26.3,8.4,43.1,5.6c12.7-2.1,24.3,1.1,34.6,8.9C77.8,14.7,78,14.8,78.6,15.2z"/>
	<path d="M21.4,84.9c-0.6,0.7-1.1,1.3-1.8,2c-0.8,0.8-1.9,1.2-2.8,0.6c-0.7-0.4-1.5-1.3-1.7-2.2c-0.6-3-1-6-1.4-9
		c-0.3-2.8,0.8-4,3.6-3.6c3.1,0.4,6.1,0.8,9.2,1.4c2.1,0.4,2.9,2.7,1.5,4.3c-0.8,0.9-1.8,1.7-2.8,2.6c3.4,2.8,6.9,4.7,10.7,6.1
		c22.9,8.4,47.4-5,52.7-28.8c0.6-2.6,0.7-5.3,0.9-7.9c0.1-1.8,1-2.9,2.5-3c1.7-0.1,2.8,1,2.8,2.9c0,6-1.1,11.8-3.6,17.3
		c-6.8,14.9-18.2,24.1-34.5,26.7c-12.7,2.1-24.2-1.1-34.5-8.9c-0.1-0.1-0.3-0.2-0.5-0.3C21.9,85.1,21.8,85.1,21.4,84.9z"/>
	<path d="M42.8,51.2c0.2-4,3.6-7.2,7.5-7c3.9,0.2,7.1,3.5,7,7.4c-0.1,4-3.5,7.3-7.4,7.1C45.9,58.5,42.6,55.1,42.8,51.2z"/>
</g>
</svg>
