<?xml version="1.0" encoding="utf-8"?>
<!-- Generator: Adobe Illustrator 26.0.0, SVG Export Plug-In . SVG Version: 6.00 Build 0)  -->
<svg version="1.1" id="Layer_1" xmlns="http://www.w3.org/2000/svg" xmlns:xlink="http://www.w3.org/1999/xlink" x="0px" y="0px"
	 viewBox="0 0 84 73" style="enable-background:new 0 0 84 73;" xml:space="preserve">

<g>
	<defs>
		<rect id="SVGID_1_" x="176.99" y="2.5" width="68.01" height="68"/>
	</defs>
	<clipPath id="SVGID_00000066501682922648292100000011147573608135055039_">
		<use xlink:href="#SVGID_1_"  style="overflow:visible;"/>
	</clipPath>
	<g id="Group_497" style="clip-path:url(#SVGID_00000066501682922648292100000011147573608135055039_);">
		<path id="Path_740" class="st1" d="M184.29,19.41c0-3.14-0.01-6.17,0-9.2c-0.23-4.02,2.84-7.46,6.86-7.69
			c0.29-0.02,0.58-0.02,0.87,0c10.92-0.01,21.84,0.01,32.76-0.02c1.17-0.04,2.29,0.43,3.08,1.29c2.86,2.93,5.83,5.75,8.63,8.73
			c0.69,0.77,1.09,1.75,1.15,2.78c0.1,6.22,0.05,12.43,0.05,18.75c0.46,0.13,0.88,0.25,1.31,0.38c3.46,1.04,5.86,4.18,5.95,7.78
			c0.06,6.32,0.09,12.64,0,18.96c-0.13,5.11-4.27,9.21-9.38,9.28c-17.14,0.05-34.28,0.05-51.42,0c-3.94-0.01-7.13-3.22-7.11-7.16
			c0-0.01,0-0.03,0-0.04c-0.04-12.19-0.04-24.37,0-36.56C177.04,22.77,179.7,20.13,184.29,19.41 M230.41,60.7
			c1.91-0.38,2.42-1.02,2.42-2.97c0.01-13.14,0.01-26.28,0-39.42c0-0.38-0.07-0.77-0.11-1.23h-5.99c-2.96,0-3.6-0.65-3.6-3.67
			c0-2,0-3.99,0-6.04h-22.38c-2.98,0-5.96-0.02-8.95,0.01c-1.51,0.01-2.58,0.83-2.61,2.18c-0.08,3.27-0.03,6.54-0.03,9.94
			c2,0,3.86,0.01,5.71,0c1.99-0.05,3.92,0.71,5.36,2.09c1.33,1.24,2.72,2.42,4,3.72c0.97,1.04,2.36,1.59,3.78,1.51
			c4.65-0.09,9.3-0.03,13.95-0.03c5.68,0,8.45,2.78,8.45,8.47C230.42,43.7,230.42,52.14,230.41,60.7 M206.13,47.4
			c1.97,1.48,3.25,1.55,4.25,0.39s0.76-2.44-0.76-3.95c-1.32-1.33-2.63-2.66-3.98-3.96s-2.53-1.3-3.85-0.03
			c-1.53,1.47-3.03,2.97-4.5,4.5c-1,0.89-1.1,2.42-0.21,3.42c0.89,1,2.42,1.1,3.42,0.21c0.19-0.13,0.36-0.29,0.77-0.62
			c0,2.83-0.01,5.38,0,7.94c0.01,1.92,0.89,3.03,2.4,3.05c1.51,0.02,2.44-1.1,2.45-3C206.14,52.77,206.13,50.21,206.13,47.4"/>
	</g>
</g>
<g id="Group_513" transform="translate(-52.134 -404.339)">
	<path id="Path_761" class="st2" d="M115.4,433.81c-2.06-2.06-4.11-4.12-6.17-6.18c-0.88-0.91-2.1-1.41-3.36-1.39h-0.01
		c-1.69,0-3.39,0-5.09,0h-8.4c-3.14-0.13-5.8,2.32-5.92,5.46c-0.01,0.14-0.01,0.29,0,0.43c0,4.18,0,8.37,0,12.55
		c0,4.07,0,8.13,0,12.2v0.43c-0.09,3.15,2.39,5.76,5.54,5.85c0.09,0,0.19,0,0.28,0c1.99,0,3.97,0,5.96,0c1.15,0,2.31,0,3.46,0h0.71
		c2.85,0,5.7,0,8.55,0c2.9,0.06,5.38-2.07,5.75-4.95c0.04-0.28,0.06-0.56,0.06-0.84c0.01-6.76,0.01-13.52,0-20.27
		C116.79,435.86,116.29,434.67,115.4,433.81 M113.9,456.52c0,0.3,0,0.61,0,0.92c0.04,1.54-1.19,2.83-2.73,2.86
		c-0.06,0-0.11,0-0.17,0c-2.12,0.01-4.24,0.01-6.37,0.01c-1.07,0-2.14,0-3.21,0c-1.81,0-3.63,0-5.44,0c-1.24,0-2.49,0-3.73-0.01
		c-1.57,0.06-2.88-1.17-2.94-2.74c0-0.08,0-0.16,0-0.24v-0.95c0-8.1,0-16.2,0-24.29c-0.08-1.57,1.13-2.9,2.7-2.98
		c0.08,0,0.16,0,0.23,0c2.06-0.01,4.13-0.01,6.19-0.01c2.46,0,4.91,0,7.37,0c0.12,0,0.23,0.02,0.44,0.04c0,1.1,0,2.14,0,3.16
		c-0.04,2.27,1.77,4.14,4.04,4.18c0.03,0,0.07,0,0.1,0c0.5,0.01,1,0.01,1.5,0.01c0.44,0,0.88-0.01,1.31-0.02c0.03,0,0.05,0,0.07,0
		c0.47,0,0.66,0.17,0.66,0.69C113.92,443.63,113.93,450.07,113.9,456.52"/>
	<path id="Path_762" class="st2" d="M110.94,445.95c-0.03,0.93-0.8,1.67-1.74,1.65c-0.03,0-0.05,0-0.08,0
		c-1.06,0.01-2.13,0.01-3.19,0.01c-1.46,0-2.92,0-4.38,0h-0.12h-4.1c-1.09,0-2.19,0-3.29,0c-0.8,0.05-1.52-0.49-1.7-1.27
		c-0.2-0.7,0.11-1.44,0.74-1.8c0.29-0.16,0.62-0.25,0.95-0.26c2.91-0.01,5.82-0.01,8.73-0.01c2.14,0,4.28,0,6.42,0.01
		c0.92-0.05,1.71,0.65,1.77,1.57C110.94,445.87,110.94,445.91,110.94,445.95"/>
	<path id="Path_763" class="st2" d="M110.93,453.26c0,0.94-0.77,1.7-1.71,1.7c-0.04,0-0.09,0-0.13-0.01c-1.04,0-2.09,0-3.13,0h-4.37
		h-0.19h-4.06c-1.11,0-2.22,0-3.33-0.01c-0.83,0.04-1.56-0.54-1.71-1.36c-0.15-0.76,0.25-1.52,0.97-1.82
		c0.27-0.1,0.55-0.15,0.84-0.15c2.86-0.01,5.71-0.01,8.57-0.01c2.15,0,4.29,0,6.44,0c0.93-0.08,1.74,0.61,1.81,1.54
		C110.93,453.19,110.93,453.23,110.93,453.26"/>
	<path id="Path_764" class="st2" d="M104.47,438.54c0,0.94-0.75,1.7-1.69,1.71c-0.07,0-0.15,0-0.22-0.01c-1.38,0-2.75,0-4.13,0
		c-1.41,0-2.83,0-4.24,0c-0.94,0.11-1.8-0.56-1.91-1.5c-0.01-0.06-0.01-0.12-0.01-0.19c0.01-1,0.77-1.64,1.95-1.65
		c0.55,0,1.1,0,1.64,0h2.54h0.03h2.49c0.55,0,1.11,0,1.66,0c0.92-0.11,1.76,0.55,1.87,1.47
		C104.47,438.43,104.47,438.49,104.47,438.54"/>
	<path id="Path_767" class="st2" d="M119.55,420.15h-0.11v3.05c0.11,0,0.22,0,0.33,0.01l0.09-3.05
		C119.76,420.16,119.65,420.16,119.55,420.15 M131.25,426.89l-0.02-0.03l0,0c-0.01-0.01-0.01-0.02-0.02-0.03l0,0l0-0.01
		c-0.01-0.01-0.01-0.02-0.01-0.03c-0.01-0.01,0,0,0,0l-0.01-0.01c0-0.01-0.01-0.01-0.01-0.02l0,0v-0.01l0,0c0,0,0,0,0-0.01l0,0
		c0,0-0.01-0.01-0.01-0.01l0,0c0,0,0-0.01,0-0.01l0,0l-0.01-0.02l0,0c0,0,0,0,0-0.01l0,0c0,0-0.01-0.01-0.01-0.02l0,0
		c0,0,0,0,0-0.01l0,0c0,0,0,0,0,0c0,0,0,0,0,0c0,0,0-0.01-0.01-0.01l0,0c0,0,0,0,0,0c0,0,0,0,0-0.01s0,0,0-0.01l0,0
		c0-0.01,0-0.01-0.01-0.01c0,0,0,0,0-0.01l0-0.01l0,0c0,0,0-0.01,0-0.01s0,0,0,0c0,0-0.01-0.01-0.01-0.01l0,0c0,0,0,0,0-0.01
		c0-0.01,0,0,0,0s0,0,0,0c0,0,0-0.01-0.01-0.01c0,0,0,0,0-0.01c0-0.01,0,0,0-0.01c0-0.01,0,0,0,0c0,0,0,0,0-0.01c0,0,0,0,0-0.01
		l0-0.01c0,0,0,0,0,0c0,0,0,0,0-0.01c0-0.01,0,0,0-0.01s0,0,0-0.01l0,0l-0.01-0.01l0,0l-0.01-0.01l0,0l-0.01-0.01c0,0,0,0,0-0.01
		c0-0.01,0,0,0,0c0,0,0,0,0-0.01s0,0,0-0.01s0,0,0,0c0,0,0-0.01-0.01-0.01l0,0c0,0,0,0,0-0.01c0,0,0,0,0,0c0,0,0,0,0-0.01s0,0,0,0
		c0,0-0.01-0.01-0.01-0.01l0,0c0,0,0,0,0-0.01l0,0l0-0.01l0,0c0,0,0,0-0.01-0.01s0,0,0,0l0-0.01l0,0c0,0-0.01-0.01-0.01-0.01
		c0,0-0.01-0.01-0.01-0.01l0,0c0,0,0,0-0.01-0.01l0,0c0,0,0-0.01-0.01-0.01l0,0c0,0,0-0.01-0.01-0.01l0,0c0,0,0-0.01-0.01-0.01l0,0
		c0,0,0-0.01-0.01-0.01l0,0c0,0-0.01-0.01-0.01-0.01l0,0c0,0,0-0.01-0.01-0.01c0,0,0-0.01-0.01-0.01l0,0c0,0,0-0.01-0.01-0.01l0,0
		c0-0.01-0.01-0.02-0.01-0.02l0,0l-0.01-0.01l0,0c-0.01-0.01-0.01-0.01-0.01-0.02l0,0c0,0,0-0.01-0.01-0.01l0,0
		c0,0,0-0.01-0.01-0.01c0,0-0.01-0.01-0.01-0.01l0,0c0,0,0-0.01-0.01-0.01c0,0-0.01-0.01-0.02-0.02l-0.02-0.02
		c0,0-0.01-0.01-0.01-0.01l0,0c0-0.01-0.01-0.02-0.01-0.02l0,0c0,0,0-0.01-0.01-0.01l0,0l-0.02-0.02l0,0
		c-0.01-0.01-0.02-0.02-0.02-0.03l0,0c-0.01-0.01-0.02-0.02-0.03-0.03l0,0l-0.02-0.02l-0.01-0.01l0,0l-0.02-0.02
		c0,0-0.01-0.01-0.01-0.01c-0.92-1.27-2.05-2.38-3.34-3.27l0,0c-0.01-0.01-0.02-0.02-0.03-0.02c-0.01-0.01-0.02-0.02-0.03-0.02l0,0
		l-0.02-0.02c0,0-0.01,0-0.01-0.01l-0.02-0.02l-0.01-0.01l0,0l-0.02-0.02l0,0c0,0-0.01-0.01-0.01-0.01c0,0-0.01,0-0.01-0.01l0,0
		l-0.01-0.01l0,0c0,0-0.01-0.01-0.01-0.01l0,0l-0.01-0.01c0,0-0.01,0-0.01-0.01l0,0c-0.01-0.01-0.01-0.01-0.02-0.01l0,0l-0.01-0.01
		l0,0l-0.02-0.01l0,0l-0.01-0.01l0,0l-0.21-0.14l0,0c0,0,0-0.01-0.01-0.01c0,0,0,0,0,0l-0.01-0.01l0,0c0,0-0.01,0-0.01-0.01l0,0
		c0,0-0.01,0-0.01,0l0,0c0,0,0,0-0.01,0l0,0l-0.01-0.01l0,0l-0.01,0l0,0l-0.01,0l0,0c0,0-0.01,0-0.01-0.01l0,0c0,0,0,0-0.01,0l0,0
		c0,0-0.01,0-0.01-0.01c0,0,0,0-0.01,0c0,0,0,0-0.01,0h-0.01c0,0,0,0-0.01,0h0l-0.01-0.01c0,0,0,0-0.01,0c0,0,0,0-0.01,0s0,0-0.01,0
		h0h-0.01l-0.01-0.01h-0.01h0c0,0,0,0-0.01,0s0,0,0,0c0,0-0.01-0.01-0.01-0.01l0,0c0,0-0.01,0-0.01,0l0,0l0,0l-1.6,2.59
		c1.59,0.99,2.9,2.37,3.79,4.02l2.68-1.45c-0.09-0.16-0.18-0.32-0.27-0.47 M130.15,434.26c-0.08,1.84-0.64,3.63-1.62,5.19l2.6,1.6
		c0.28-0.46,0.53-0.93,0.76-1.41c0.01-0.01,0.01-0.03,0.02-0.04c0.01-0.01,0.01-0.03,0.02-0.04l0.01-0.01l0,0l0.01-0.03l0.01-0.01
		l0,0c0-0.01,0.01-0.02,0.01-0.03l0.01-0.01l0,0l0.01-0.03l0,0c0,0,0-0.01,0.01-0.01l0,0c0,0,0-0.01,0.01-0.01c0,0,0-0.01,0-0.01
		l0,0c0,0,0,0,0-0.01s0,0,0,0s0-0.01,0-0.01l0,0l0-0.01l0,0c0,0,0-0.01,0.01-0.01l0,0l0.01-0.01l0,0c0,0,0-0.01,0-0.01l0,0
		c0,0,0-0.01,0.01-0.01l0,0c0,0,0,0,0-0.01l0,0l0-0.01l0,0c0,0,0-0.01,0-0.01l0,0c0,0,0-0.01,0-0.01l0,0c0,0,0-0.01,0-0.01l0,0
		c0,0,0-0.01,0-0.01l0,0c0,0,0-0.01,0-0.01s0,0,0,0s0-0.01,0-0.01s0,0,0,0c0,0,0-0.01,0-0.01l0,0c0,0,0,0,0-0.01l0,0
		c0,0,0-0.01,0-0.01l0,0c0,0,0,0,0-0.01s0,0,0,0c0,0,0,0,0-0.01l0,0c0,0,0,0,0-0.01c0,0,0,0,0-0.01c0,0,0,0,0-0.01l0,0
		c0,0,0-0.01,0-0.01c0,0,0,0,0-0.01c0,0,0,0,0-0.01c0-0.01,0,0,0-0.01s0-0.01,0-0.01c0,0,0,0,0-0.01c0-0.01,0,0,0-0.01
		c0-0.01,0,0,0,0c0,0,0,0,0-0.01c0,0,0-0.01,0-0.01c0,0,0,0,0-0.01c0,0,0,0,0,0c0,0,0-0.01,0-0.01c0,0,0,0,0-0.01c0,0,0,0,0-0.01
		s0,0,0-0.01c0,0,0-0.01,0-0.01c0,0,0,0,0,0c0,0,0,0,0-0.01c0,0,0,0,0-0.01s0,0,0,0c0-0.01,0.01-0.02,0.01-0.02l0,0c0,0,0,0,0-0.01
		l0,0c0-0.01,0-0.02,0.01-0.03c0-0.01,0,0,0,0s0-0.01,0-0.01l0,0c0-0.01,0.01-0.02,0.01-0.03l0,0c0,0,0-0.01,0-0.01l0,0l0.01-0.03
		l0,0c0,0,0-0.01,0-0.01l0,0c0,0,0-0.01,0-0.01c0,0,0-0.01,0.01-0.02l0,0c0,0,0,0,0-0.01l0,0c0,0,0,0,0-0.01l0,0l0.01-0.03l0,0
		c0.01-0.01,0.01-0.03,0.01-0.04l0,0c0.01-0.03,0.02-0.05,0.03-0.08c0.6-1.43,0.94-2.95,1.03-4.49L130.15,434.26z M124.57,443.34
		c-1.58,0.82-3.34,1.23-5.13,1.19h-0.36v3.05h0.51h0.01h0.1c0,0,0.01,0,0.01,0h0.07h0.01h0.06c0,0,0,0,0.01,0h0.05c0,0,0,0,0.01,0
		h0.04h0.01h0.04c0,0,0.01,0,0.01,0h0.03h0.01h0.03c0,0,0.01,0,0.01,0h0.03h0.01h0.01c0.01,0,0.02,0,0.03,0h0.03l0,0h0.03h0.01h0.02
		c0,0,0.01,0,0.01,0h0.03l0,0h0.03l0,0h0.03h0.01h0.02l0,0h0.03l0,0h0.01h0.03l0,0h0.01h0.02c0.01,0,0.02,0,0.03,0l0,0
		c0,0,0.01,0,0.01,0h0.01l0,0c0.01,0,0.02,0,0.03,0h0.02c0,0,0.01,0,0.01,0l0,0c0,0,0.01,0,0.01,0h0.02c0,0,0.01,0,0.01,0h0.01l0,0
		c0.01,0,0.02,0,0.03,0h0.01l0,0h0.01c0.01,0,0.02,0,0.03,0h0.02c0,0,0.01,0,0.01,0l0,0c0.01,0,0.02,0,0.03,0l0,0h0.01
		c0,0,0,0,0.01,0l0,0h0.03l0,0c0,0,0.01,0,0.01,0l0,0h0.01l0,0h0.03l0,0h0.01c0,0,0.01,0,0.01,0l0,0h0.03h0.01l0,0h0.01h0.03l0,0
		h0.01l0,0c0,0,0.01,0,0.01,0l0,0h0.03l0,0h0.01c0,0,0.01,0,0.01,0l0,0c0.01,0,0.02,0,0.03,0l0,0h0.01l0,0c0,0,0.01,0,0.01,0l0,0
		c0.01,0,0.02,0,0.03,0h0.01l0,0h0.01l0,0h0.03l0,0h0.01c0,0,0.01,0,0.01,0l0,0c0.01,0,0.02,0,0.03,0l0,0c0,0,0.01,0,0.01,0l0,0
		c0,0,0.01,0,0.01,0l0,0c0.01,0,0.02,0,0.03,0l0,0c0,0,0.01,0,0.01,0l0,0c0,0,0.01,0,0.01,0l0,0c0.01,0,0.02,0,0.03,0l0,0
		c0,0,0.01,0,0.01,0l0,0h0.01l0,0c0.01,0,0.02,0,0.03,0l0,0c0,0,0.01,0,0.01,0l0,0c0,0,0.01,0,0.01,0l0,0h0.03h0.01l0,0h0.01l0,0
		c0.01,0,0.02,0,0.03,0l0,0c0,0,0.01,0,0.01,0l0,0c0,0,0.01,0,0.01,0c0.01,0,0.02,0,0.03,0h0.01l0,0c0,0,0.01,0,0.01,0l0,0
		l0.03-0.01l0,0c0,0,0.01,0,0.01,0l0,0h0.01l0,0c0.01,0,0.02,0,0.03,0l0,0c0,0,0.01,0,0.01,0l0,0c0,0,0.01,0,0.01,0
		c0.01,0,0.02,0,0.03,0h0.01l0,0c0,0,0.01,0,0.01,0l0,0c0.01,0,0.02,0,0.03,0h0.01l0,0h0.01l0,0l0.03,0c0,0,0.01,0,0.01,0l0,0h0.01
		l0,0l0.03,0c0.01,0,0.01,0,0.01,0l0,0c0,0,0.01,0,0.01,0l0,0c0.01,0,0.02,0,0.03,0l0,0c0,0,0.01,0,0.01,0l0,0c0,0,0.01,0,0.01,0
		l0.03-0.01h0.01l0,0c0,0,0.01,0,0.01,0l0,0l0.03-0.01h0.01l0,0h0.01c0.01,0,0.03-0.01,0.04-0.01h0.01l0.04-0.01h0.01
		c0.01,0,0.03-0.01,0.04-0.01l0,0h0.01l0,0l0.04-0.01l0,0h0.01l0,0l0.04-0.01l0,0h0.01l0.04-0.01l0,0h0.01l0.04-0.01l0,0
		c0,0,0.01,0,0.01,0l0.04-0.01l0,0h0.01l0.04-0.01l0,0c0,0,0.01,0,0.01,0c0.01,0,0.03,0,0.04-0.01l0,0c0,0,0.01,0,0.01,0l0,0
		c0.01,0,0.03-0.01,0.04-0.01l0,0h0.01l0,0l0.04-0.01h0.01l0.04-0.01c0,0,0.01,0,0.01,0l0.04-0.01l0,0c0,0,0.01,0,0.01,0l0,0
		c0.01,0,0.03-0.01,0.04-0.01l0,0h0.01l0,0c0.01,0,0.02,0,0.03-0.01h0.01l0,0h0.01l0.04-0.01l0,0h0.01l0,0
		c0.01,0,0.02-0.01,0.04-0.01l0,0h0.01l0.04-0.01l0,0h0.01l0,0l0.03-0.01c0,0,0.01,0,0.01,0h0.01l0.04-0.01l0,0h0.01l0,0l0.04-0.01
		c0,0,0.01,0,0.01,0l0.04-0.01l0,0h0.01l0.04-0.01l0,0c0,0,0.01,0,0.01,0l0,0l0.04-0.01l0,0c0,0,0.01,0,0.01,0l0,0l0.04-0.01l0,0
		h0.01l0.04-0.01l0,0c0,0,0.01,0,0.01,0l0.04-0.01c0,0,0.01,0,0.01,0c0.01,0,0.03-0.01,0.04-0.01l0,0h0.01l0.03-0.01
		c0,0,0.01,0,0.01,0l0,0h0.01c0.01,0,0.02,0,0.03-0.01l0,0c0,0,0.01,0,0.01,0l0,0c0,0,0.01,0,0.01,0l0,0l0.03-0.01l0,0
		c0,0,0.01,0,0.01,0l0,0c0,0,0.01,0,0.01,0l0,0l0.03-0.01c0,0,0.01,0,0.01,0l0,0h0.01l0,0l0.03-0.01h0.01l0,0c0,0,0.01,0,0.01,0l0,0
		c0.01,0,0.02-0.01,0.02-0.01l0,0c0,0,0.01,0,0.01,0l0,0c0,0,0.01,0,0.01,0l0,0c0,0,0.01,0,0.01,0l0.01-0.01l0,0h0.01l0,0
		c0,0,0.01,0,0.01,0l0,0c0,0,0.01,0,0.01,0c0,0,0.01,0,0.01,0l0,0h0.01l0,0h0.01l0,0c0,0,0.01,0,0.01,0l0,0c0,0,0.01,0,0.01,0l0,0
		h0.01l0,0c0,0,0.01,0,0.01,0l0,0h0.01l0.01,0l0,0c0,0,0.01,0,0.01,0s0,0,0,0h0.01l0,0c0,0,0.01,0,0.01,0l0,0c0,0,0.01,0,0.01,0l0,0
		c0,0,0.01,0,0.01,0l0,0c0,0,0,0,0.01,0l0,0c0,0,0.01,0,0.01,0l0,0c0,0,0.01,0,0.01,0l0,0c0,0,0.01,0,0.01,0l0,0c0,0,0.01,0,0.01,0
		l0,0h0.01l0,0c0,0,0.01,0,0.01,0l0,0c0,0,0,0,0.01,0l0,0h0.01l0,0c0,0,0.01,0,0.01,0l0,0l0.01-0.01l0,0h0.01l0,0c0,0,0.01,0,0.01,0
		c0,0,0,0,0,0c0,0,0.01,0,0.01,0s0,0,0,0c0,0,0.01,0,0.01,0l0,0h0.01h0c0,0,0,0,0.01,0l0,0c0,0,0.01,0,0.01,0l0,0h0.01l0,0
		c0,0,0,0,0.01,0c0,0,0,0,0.01,0h0.01l0,0c0,0,0,0,0.01,0h0.01l0.01-0.01c0,0,0,0,0.01,0c0,0,0,0,0.01,0c0.01,0,0,0,0,0
		c0,0,0,0,0.01,0h0.01c0,0,0,0,0,0h0.01h0.01l0,0h0.01c0,0,0,0,0.01,0h0.01h0c0,0,0,0,0.01,0h0.01c0,0,0.01,0,0.01,0h0.01h0h0.01
		c0,0,0,0,0.01,0h0h0.01c0,0,0.01,0,0.01,0h0.01c0,0,0,0,0.01,0h0h0.01h0.01c0,0,0,0,0,0h0.01h0.01c0,0,0,0,0.01,0h0.01h0h0.01
		c0,0,0,0,0.01,0h0h0.01h0.01c0,0,0,0,0.01,0h0.01h0h0.01c0,0,0,0,0.01,0h0c0,0,0,0,0.01,0l0.01-0.01l0,0h0h0.01h0.01c0,0,0,0,0,0
		h0.01h0.01l0.01,0l0,0h0c0,0,0,0,0.01,0h0.01c0,0,0,0,0,0h0.01l0,0c0.01,0,0.02-0.01,0.02-0.01l0,0c0,0,0,0,0.01,0c0,0,0,0,0,0
		c0,0,0,0,0.01,0l0,0l0.02-0.01l0,0c0,0,0,0,0.01,0l0,0c0,0,0,0,0.01,0l0,0c0.01,0,0.02-0.01,0.03-0.01l0,0c0,0,0,0,0.01,0
		c0,0,0,0,0,0s0,0,0.01,0l0,0l0.03-0.01l0,0c0,0,0.01,0,0.01,0l0,0c0,0,0,0,0.01,0l0,0c0.01-0.01,0.02-0.01,0.03-0.01l0,0l0.01,0
		l0.05-0.02l0,0c0.01,0,0.03-0.01,0.05-0.02c0.31-0.14,0.61-0.29,0.9-0.45L124.57,443.34z M69.3,423.29h7.17v-3.14h-7.21
		L69.3,423.29z M83.64,423.29h7.17v-3.14H83.6L83.64,423.29z M97.98,423.29h7.17v-3.14h-7.21L97.98,423.29z M112.32,423.29h7.12
		v-3.14h-7.17L112.32,423.29z"/>
	<path id="Path_768" class="st2" d="M110.86,472.13h7.17v-3.05h-7.17V472.13z M96.53,472.13h7.17v-3.05h-7.17L96.53,472.13z
		 M82.19,472.13h7.17v-3.05h-7.17L82.19,472.13z M68.72,469.09c-0.23,0-0.46-0.01-0.68-0.02l-0.19,3.04
		c0.11,0.01,0.21,0.01,0.32,0.02h0.02h0.04h0.01c0.01,0,0.03,0,0.04,0h0.02l0,0h0.06c0,0,0.01,0,0.01,0h0.07c0,0,0,0,0.01,0h0.11
		h0.01h6.45v-3.05L68.72,469.09z M59.18,463.17l-2.73,1.36c0.95,1.91,2.33,3.57,4.03,4.85c0.01,0.01,0.02,0.02,0.03,0.03l0,0
		c0.01,0,0.01,0.01,0.02,0.02l0.03,0.03l0,0c0.01,0.01,0.02,0.02,0.03,0.02l0,0c0.01,0.01,0.02,0.02,0.03,0.02l0,0l0.02,0.02l0,0
		l0.01,0.01l0.03,0.02l0,0l0.01,0.01l0.02,0.02l0,0c0.01,0.01,0.02,0.01,0.03,0.02l0.01,0.01l0,0c0.01,0.01,0.02,0.01,0.02,0.02l0,0
		c0,0,0,0,0.01,0.01l0,0l0.02,0.02l0,0c0,0,0,0,0.01,0.01l0,0l0.02,0.02l0,0c0,0,0,0,0.01,0l0,0l0.02,0.01c0,0,0.01,0,0.01,0.01l0,0
		l0.01,0.01c0,0,0.01,0.01,0.01,0.01l0,0l0.01,0l0,0c0,0,0,0,0.01,0c0,0,0.01,0.01,0.01,0.01l0,0c0,0,0,0,0.01,0l0,0l0.02,0.02l0,0
		h0.01l0,0l0.01,0.01l0,0l0.01,0l0,0c0,0,0,0,0.01,0h0c0,0,0.01,0,0.01,0.01H61c0,0,0,0,0.01,0l0,0c0,0,0,0,0.01,0c0,0,0,0,0.01,0
		c0,0,0,0.01,0.01,0.01s0,0,0,0c0,0,0,0,0.01,0c0,0,0,0,0.01,0s0,0,0,0c0,0,0,0,0.01,0c0,0,0.01,0.01,0.01,0.01l0,0c0,0,0,0,0.01,0
		c0,0,0,0,0.01,0h0l0.01,0l0,0l1.69-2.54c-1.56-1.04-2.82-2.46-3.65-4.14 M57.23,450.76c-0.95,1.43-1.62,3.03-1.98,4.71
		c0,0.01-0.01,0.03-0.01,0.04c0,0.01-0.01,0.03-0.01,0.04l0,0c0,0.01-0.01,0.03-0.01,0.04l0,0c0,0.01-0.01,0.03-0.01,0.04
		c0,0.01-0.01,0.03-0.01,0.04l0,0c0,0.01,0,0.03-0.01,0.04l0,0c0,0,0,0.01,0,0.01c0,0.01,0,0.02-0.01,0.03l0,0
		c0,0.01,0,0.03-0.01,0.04l0,0c0,0,0,0.01,0,0.01c0,0,0,0.02,0,0.03l0,0c0,0,0,0.01,0,0.01l0,0c0,0.01,0,0.02-0.01,0.03l0,0v0.01
		l0,0c0,0.01,0,0.02,0,0.03l0,0c0,0,0,0.01,0,0.01l0,0c0,0.01,0,0.02-0.01,0.03l0,0c0,0,0,0,0,0.01l0,0l-0.01,0.03l0,0
		c0,0,0,0.01,0,0.01l0,0c0,0.01,0,0.02,0,0.03l0,0c0,0,0,0,0,0.01v0.01c0,0,0,0,0,0.01c0,0.01,0,0.01,0,0.02l0,0v0.01l0,0
		c0,0,0,0.01,0,0.01l0,0c0,0,0,0.01,0,0.01c0,0,0,0,0,0.01v0.01c0,0,0,0,0,0.01v0.01c0,0,0,0,0,0.01c0,0,0,0.01,0,0.01v0.01
		c0,0,0,0,0,0.01v0c0,0,0,0,0,0.01c0,0,0,0,0,0.01v0.01c0,0,0,0,0,0.01v0.01c0,0,0,0,0,0.01c0,0,0,0,0,0v0.01c0,0,0,0.01,0,0.01
		c0,0,0,0.01,0,0.01v0.01c0,0,0,0,0,0.01v0.01c0,0,0,0.01,0,0.01v0.01c0,0,0,0,0,0.01s0,0,0,0.01v0.01c0,0,0,0,0,0.01v0.01
		c0,0,0,0,0,0.01c0,0,0,0.01,0,0.01v0c0,0,0,0.01,0,0.01v0.01c0,0,0,0.01,0,0.01l0,0c0,0,0,0.01,0,0.01v0.01c0,0,0,0,0,0.01v0.01
		c0,0,0,0.01,0,0.01l0,0c0,0,0,0.01,0,0.01c0,0,0,0,0,0.01v0.01c0,0,0,0,0,0v0.01c0,0,0,0.01,0,0.01l0,0v0.01l0,0v0.01l0,0
		c0,0,0,0.01,0,0.01l0,0c0,0,0,0.01,0,0.01l0,0c0,0,0,0.01,0,0.01l0,0c0,0,0,0.01,0,0.01l0,0c0,0,0,0.01,0,0.01l0,0
		c0,0.01,0,0.02,0,0.03l0,0c0,0,0,0.01,0,0.01l0,0c0,0,0,0.01,0,0.01l0,0c0,0,0,0.01,0,0.01v0.01l0,0c0,0,0,0.01,0,0.01v0.01
		c0,0,0,0.01,0,0.01l0,0c0,0,0,0.01,0,0.01c0,0.01,0,0.02,0,0.03l0,0l0,0.04l0,0c0,0.01,0,0.03,0,0.04l0,0
		c-0.02,0.21-0.04,0.42-0.05,0.63l3.04,0.18c0.12-1.79,0.7-3.52,1.67-5.03L57.23,450.76z M68.66,444.61h-0.14c0,0-0.01,0-0.01,0
		H68.4c0,0,0,0-0.01,0h-0.07c0,0,0,0-0.01,0h-0.06c0,0,0,0-0.01,0h-0.04c0,0-0.01,0-0.01,0h-0.05l0,0h-0.04c0,0,0,0-0.01,0h0.02
		c0,0-0.01,0-0.01,0h-0.03c0,0-0.01,0-0.01,0h-0.03c0,0-0.01,0-0.01,0H68c0,0,0,0-0.01,0h-0.03l0,0h-0.03h-0.01H67.9H67.9h-0.02
		c0,0-0.01,0-0.01,0h-0.02c0,0,0,0-0.01,0h-0.02c0,0,0,0-0.01,0H67.8c0,0-0.01,0-0.01,0h-0.02h0h-0.02l0,0h-0.01c0,0-0.01,0-0.01,0
		H67.7c0,0-0.01,0-0.01,0h-0.02c0,0-0.01,0-0.01,0h-0.01c-0.01,0-0.01,0-0.01,0h-0.02c0,0,0,0-0.01,0H67.6c0,0,0,0,0,0h-0.02l0,0
		h-0.01h-0.01h-0.02l0,0h-0.02c0,0,0,0,0,0H67.5h-0.01h-0.01c0,0,0,0-0.01,0h-0.02c0,0-0.01,0-0.01,0h-0.01c0,0,0,0,0,0h-0.01h-0.01
		h-0.01l0,0h-0.02c0,0,0,0-0.01,0h-0.01l0,0h-0.01h-0.02h-0.02c0,0,0,0-0.01,0h-0.01c0,0,0,0-0.01,0h-0.01l0,0h-0.01
		c0,0-0.01,0-0.01,0l0,0h-0.01h-0.01h-0.01h-0.01c0,0-0.01,0-0.01,0l0,0h-0.01l0,0c0,0-0.01,0-0.01,0h-0.01l0,0h-0.01
		c0,0,0,0-0.01,0l0,0c0,0-0.01,0-0.01,0h-0.01c0,0-0.01,0-0.01,0h-0.01c0,0,0,0,0,0H67.1c0,0,0,0-0.01,0h-0.01c0,0,0,0-0.01,0l0,0
		c0,0,0,0-0.01,0h-0.01c0,0-0.01,0-0.01,0l0,0c0,0-0.01,0-0.01,0h-0.01h-0.01h-0.01c0,0,0,0,0,0H67c0,0,0,0-0.01,0h-0.03h-0.01l0,0
		h-0.01l0,0c0,0,0,0-0.01,0h-0.01c0,0,0,0-0.01,0h-0.01c0,0,0,0-0.01,0H66.9h0h-0.01c0,0-0.01,0-0.01,0h-0.01h-0.01c0,0,0,0,0,0
		h-0.01l0,0h-0.01c0,0,0,0-0.01,0l0,0c-0.01,0-0.02,0-0.02,0l0,0c0,0-0.01,0-0.01,0l0,0c0,0,0,0-0.01,0h-0.01c0,0,0,0-0.01,0l0,0
		c0,0-0.01,0-0.01,0l0,0h-0.01l0,0h-0.01l0,0c0,0,0,0-0.01,0h-0.01c0,0,0,0-0.01,0h-0.01c0,0,0,0-0.01,0l0,0c0,0,0,0-0.01,0H66.7
		c0,0-0.01,0-0.01,0c0,0-0.01,0-0.01,0l0,0h-0.01l0,0h-0.01l0,0h-0.01h-0.01h-0.01l0,0c0,0-0.01,0-0.01,0l0,0c0,0-0.01,0-0.01,0l0,0
		h-0.01l0,0H66.6l0,0h-0.01l0,0h-0.01h-0.01c0,0,0,0-0.01,0l0,0c0,0-0.01,0-0.01,0c0,0,0,0,0,0h-0.01l0,0c0,0,0,0-0.01,0h0
		c0,0,0,0-0.01,0l0,0c0,0,0,0-0.01,0h-0.01c0,0-0.01,0-0.01,0l0,0c0,0-0.01,0-0.01,0l0,0h-0.01h-0.01H66.4c0,0,0,0,0,0
		c0,0-0.01,0-0.01,0h-0.01c0,0,0,0-0.01,0l0,0h-0.01l0,0c0,0-0.01,0-0.01,0l0,0h-0.01c0,0,0,0-0.01,0c0,0,0,0-0.01,0h-0.02
		c0,0,0,0-0.01,0H66.3H66.3l0,0c0,0-0.01,0-0.01,0l0,0c0,0-0.01,0-0.01,0l0,0h-0.01l0,0h-0.01h-0.01c0,0,0,0,0,0c0,0,0,0-0.01,0
		h-0.01h0c0,0,0,0-0.01,0l0,0h-0.01l0,0h-0.01l0,0c0,0,0,0-0.01,0h0c0,0,0,0-0.01,0l0,0c0,0,0,0-0.01,0h0c0,0-0.01,0-0.01,0l0,0
		h-0.01l0,0h-0.01l0,0h-0.01c0,0,0,0-0.01,0c0,0,0,0-0.01,0l0,0c0,0,0,0-0.01,0h-0.04c0,0-0.01,0-0.01,0l0,0c0,0-0.01,0-0.01,0l0,0
		h-0.01l0,0h-0.01l0,0c0,0-0.01,0-0.01,0l0,0h-0.01l0,0h-0.01l0,0H66l0,0c0,0-0.01,0-0.01,0l0,0c0,0-0.01,0-0.01,0l0,0
		c0,0-0.01,0-0.01,0c0,0,0,0-0.01,0h-0.01l0,0h-0.01l0,0c0,0-0.01,0-0.01,0l0,0c0,0,0,0-0.01,0h-0.01c0,0,0,0-0.01,0l0,0
		c0,0-0.01,0-0.01,0h-0.01c0,0,0,0-0.01,0l0,0c0,0-0.01,0-0.01,0l0,0c-0.01,0-0.01,0-0.01,0l0,0c0,0-0.01,0-0.01,0l0,0h-0.01l0,0
		c0,0,0,0-0.01,0l0,0c0,0-0.01,0-0.01,0l0,0c0,0-0.01,0-0.01,0l0,0c0,0-0.01,0-0.01,0l0,0c0,0-0.01,0-0.01,0l0,0c0,0,0,0-0.01,0h0
		c0,0,0,0-0.01,0h-0.01c0,0,0,0-0.01,0l0,0h-0.01l0,0h-0.01l0,0c0,0-0.01,0-0.01,0c0,0,0,0-0.01,0c0,0,0,0-0.01,0l0,0
		c0,0,0,0-0.01,0h-0.01c0,0,0,0,0,0h-0.01c0,0,0,0-0.01,0l0,0H65.7l0,0h-0.01l0,0c0,0,0,0-0.01,0h-0.01c0,0,0,0-0.01,0h-0.09
		c0,0,0,0-0.01,0c-0.01,0,0,0,0,0s0,0-0.01,0h0h-0.01l0,0h-0.01h-0.01c0,0,0,0,0,0h-0.01c0,0,0,0-0.01,0l0,0c0,0-0.01,0-0.01,0H65.5
		c0,0,0,0-0.01,0c-0.01,0,0,0,0,0h-0.01l0,0c0,0-0.01,0-0.01,0l0,0c0,0,0,0-0.01,0s0,0,0,0s0,0-0.01,0c0,0,0,0,0,0c0,0,0,0-0.01,0
		h-0.03c0,0,0,0-0.01,0l0,0h-0.01l0,0h-0.01l0,0c0,0,0,0-0.01,0c0,0,0,0-0.01,0h0c0,0,0,0-0.01,0c0,0,0,0-0.01,0l0,0c0,0,0,0-0.01,0
		l0,0h-0.01c0,0,0,0,0,0h-0.01l0,0c0,0-0.01,0-0.01,0l0,0c0,0-0.01,0-0.01,0l0,0c0,0,0,0-0.01,0s0,0,0,0s-0.01,0-0.01,0l0,0h-0.01
		l0,0h-0.01l0,0h-0.01c0,0-0.01,0-0.01,0h-0.01c0,0,0,0-0.01,0l0,0c0,0,0,0-0.01,0s0,0,0,0c0,0-0.01,0-0.01,0l0,0h-0.01l0,0
		c0,0-0.01,0-0.01,0h-0.01c0,0,0,0-0.01,0c0,0,0,0,0,0c0,0,0,0-0.01,0l0,0c0,0,0,0-0.01,0l0,0h-0.01l0,0h-0.01l0,0c0,0,0,0-0.01,0
		l0,0c0,0,0,0-0.01,0h-0.01c0,0,0,0-0.01,0l0,0c0,0,0,0-0.01,0l0,0h-0.01l0,0h-0.01l0,0c0,0,0,0-0.01,0c-0.01,0,0,0,0,0H65.1l0,0
		c0,0,0,0-0.01,0c0,0,0,0,0,0c0,0,0,0-0.01,0l0,0h-0.01h-0.01l0,0h-0.01h-0.01c0,0,0,0-0.01,0s0,0,0,0c0,0,0,0-0.01,0l0,0h-0.01l0,0
		h-0.01l0,0H65l0,0h-0.01l0,0c0,0,0,0-0.01,0c0,0,0,0,0,0c0,0,0,0-0.01,0l0,0c0,0-0.01,0-0.01,0l0,0h-0.01l0,0h-0.01l0,0h-0.01l0,0
		c0,0-0.01,0-0.01,0l0,0c0,0,0,0-0.01,0l0,0c0,0,0,0-0.01,0c0,0,0,0-0.01,0H64.9l0,0h-0.01l0,0c0,0-0.01,0-0.01,0l0,0
		c0,0-0.01,0-0.01,0h-0.01c0,0,0,0-0.01,0s0,0,0,0c0,0,0,0-0.01,0l0,0h-0.01h-0.01l0,0h-0.01l0,0h-0.01l0,0c0,0-0.01,0-0.01,0l0,0
		c0,0-0.01,0-0.01,0l0,0c0,0-0.01,0-0.01,0l0,0h-0.01h-0.01l0,0c0,0,0,0-0.01,0l0,0c0,0,0,0-0.01,0l0,0c0,0-0.01,0-0.01,0l0,0
		c0,0-0.01,0-0.01,0l0,0c0,0-0.01,0-0.01,0l0,0h-0.01l0,0H64.7l0,0c0,0,0,0-0.01,0l0,0h-0.01l0,0c0,0-0.01,0-0.01,0l0,0h-0.01l0,0
		c0,0-0.01,0-0.01,0l0,0h-0.01l0,0c0,0,0,0-0.01,0l0,0c0,0-0.01,0-0.01,0l0,0h-0.01l0,0h-0.01l0,0c0,0-0.01,0-0.01,0c0,0,0,0,0,0
		H64.6l0,0c0,0-0.01,0-0.01,0l0,0h-0.01l0,0c0,0-0.01,0-0.01,0l0,0l-0.02,0.01l0,0h-0.01l0,0h-0.01l0,0h-0.01l0,0c0,0-0.01,0-0.01,0
		l0,0c-0.01,0-0.02,0.01-0.02,0.01l0,0h-0.01l0,0c0,0-0.01,0-0.01,0l0,0c0,0,0,0-0.01,0l0,0h-0.01l0,0c-0.01,0-0.01,0-0.02,0.01l0,0
		c0,0,0,0-0.01,0l0,0h-0.01l0,0c0,0,0,0-0.01,0c-0.01,0,0,0,0,0s0,0-0.01,0l0,0l-0.02,0.01l0,0c0,0-0.01,0-0.01,0l0,0
		c0,0-0.01,0-0.01,0c0,0,0,0,0,0h-0.01l0,0h-0.01l0,0c-0.01,0-0.01,0.01-0.02,0.01l0,0h-0.01l0,0h-0.01l0,0H64.3l0,0h-0.01l0,0
		l-0.02,0.01l0,0h-0.01l0,0c0,0-0.01,0-0.01,0c0,0,0,0,0,0h-0.01l0,0h-0.01l0,0l-0.02,0.01l0,0h-0.01l0,0H64.2l0,0h-0.01l0,0
		c0,0-0.01,0-0.01,0l0,0l-0.02,0.01l0,0c0,0,0,0-0.01,0l0,0h-0.01l0,0h-0.01l0,0c0,0-0.01,0-0.01,0l0,0c-0.01,0-0.02,0.01-0.02,0.01
		l0,0c0,0-0.01,0-0.01,0l0,0h-0.01l0,0c0,0-0.01,0-0.01,0l0,0c0,0-0.01,0-0.01,0l0,0c-0.01,0-0.02,0.01-0.02,0.01c0,0-0.01,0-0.01,0
		l0,0c0,0,0,0-0.01,0l0,0h-0.01l0,0c0,0-0.01,0-0.01,0l0,0l-0.02,0.01c0,0-0.01,0-0.01,0l0,0h-0.01l0,0c0,0-0.01,0-0.01,0l0,0
		c0,0-0.01,0-0.01,0l0,0c-0.01,0-0.02,0.01-0.02,0.01l-0.01,0.01H63.9l0,0c0,0,0,0-0.01,0l0,0c0,0-0.01,0-0.01,0l0,0l-0.03,0.01l0,0
		c0,0-0.01,0-0.01,0l0,0c0,0-0.01,0-0.01,0l0,0h-0.01l0,0l-0.03,0.01l0,0l-0.01,0.01l0,0h-0.01l0,0l-0.01,0.01l-0.03,0.01l0,0h-0.01
		l0,0c0,0-0.01,0-0.01,0l0,0c0,0-0.01,0-0.01,0.01c-0.01,0.01-0.02,0.01-0.03,0.01l0,0c0,0-0.01,0-0.01,0l0,0h-0.01l0,0
		c0,0-0.01,0-0.01,0l0,0c-0.01,0.01-0.02,0.01-0.03,0.01l-0.01,0.01l0,0l-0.01,0.01l0,0c0,0-0.01,0-0.01,0l0,0
		c-0.01,0-0.02,0.01-0.03,0.01l0,0h-0.01l0,0c0,0-0.01,0-0.01,0l0,0l-0.01,0.01l-0.04,0.02l0,0l-0.01,0.01l-0.01,0.01l-0.03,0.01
		l0,0l-0.01,0.01l0,0c0,0-0.01,0-0.01,0.01l0,0H63.4l0,0l-0.03,0.01l0,0l-0.01,0.01l0,0l-0.01,0l0,0l-0.01,0.01
		c-0.01,0.01-0.02,0.01-0.03,0.01l-0.01,0.01l0,0h-0.01l0,0l-0.01,0.01l0,0l-0.04,0.02l-0.01,0.01c-0.02,0.01-0.04,0.02-0.05,0.03
		l0,0h-0.01l0,0L63.15,445l-0.04,0.02l-0.44,1.09l-0.05,0.03l-0.01,0.01l-0.01,0l1.37,2.72c1.48-0.74,3.11-1.13,4.77-1.12h0.81
		v-3.05L68.66,444.61z M76.65,447.66h7.17v-3.05H76.7L76.65,447.66z"/>
	<g id="Group_511" transform="translate(55.776 404.339)">
		<g>
			<defs>
				<rect id="SVGID_00000018233160941358087530000005847648126128285628_" x="2.22" y="5.21" width="10.03" height="14.74"/>
			</defs>
			<clipPath id="SVGID_00000088829551582848506770000008973273465431803557_">
				<use xlink:href="#SVGID_00000018233160941358087530000005847648126128285628_"  style="overflow:visible;"/>
			</clipPath>
			
				<g id="Group_510" transform="translate(0 0)" style="clip-path:url(#SVGID_00000088829551582848506770000008973273465431803557_);">
				<path id="Path_769" class="st2" d="M7.23,19.95c-0.41-0.06-0.77-0.32-0.95-0.69l-0.6-1.14c-0.99-1.87-2-3.8-2.95-5.73
					C1.96,10.83,2.06,8.99,3,7.53C3.9,6.08,5.48,5.2,7.19,5.21h0.07C9,5.22,10.61,6.13,11.52,7.61c0.9,1.46,0.97,3.29,0.2,4.82
					c-0.97,1.97-2.02,3.95-3.03,5.86l-0.5,0.95c-0.18,0.37-0.53,0.64-0.94,0.71H7.23 M7.19,6.14c-2.24,0.01-4.05,1.84-4.04,4.09
					c0,0.61,0.14,1.21,0.41,1.75c0.94,1.92,1.96,3.84,2.94,5.7c0.2,0.38,0.4,0.76,0.6,1.14c0.03,0.06,0.07,0.11,0.12,0.15
					c0.05-0.05,0.1-0.11,0.13-0.17l0.5-0.95c1.01-1.91,2.05-3.88,3.02-5.83c0.63-1.25,0.57-2.73-0.16-3.92
					C9.98,6.89,8.67,6.15,7.25,6.14L7.19,6.14 M7.23,12.64c-1.39,0-2.52-1.12-2.52-2.51s1.12-2.52,2.51-2.52h0.01
					c1.38,0,2.5,1.12,2.5,2.5C9.74,11.5,8.62,12.63,7.23,12.64L7.23,12.64 M7.23,8.54L7.23,8.54c-0.88,0.01-1.58,0.72-1.58,1.59
					c0.02,0.87,0.72,1.57,1.58,1.58h0.01c0.88-0.01,1.58-0.73,1.57-1.6c0-0.42-0.17-0.81-0.47-1.11C8.04,8.7,7.64,8.54,7.23,8.54"/>
			</g>
		</g>
	</g>
	<g id="Group_512" transform="translate(133.776 463.303)">
		<g>
			<defs>
				<rect id="SVGID_00000094601899988988207550000012597083056319675535_" x="-12.49" y="-5.91" width="10.03" height="14.74"/>
			</defs>
			<clipPath id="SVGID_00000091730124988162477790000013541408961706426040_">
				<use xlink:href="#SVGID_00000094601899988988207550000012597083056319675535_"  style="overflow:visible;"/>
			</clipPath>
			
				<g id="Group_510-2" transform="translate(0 0)" style="clip-path:url(#SVGID_00000091730124988162477790000013541408961706426040_);">
				<path id="Path_769-2" class="st2" d="M-7.47,8.83c-0.41-0.06-0.77-0.32-0.95-0.69L-9.03,7c-0.99-1.87-2-3.8-2.95-5.73
					c-0.77-1.55-0.66-3.4,0.27-4.86c0.9-1.45,2.49-2.33,4.19-2.32h0.07C-5.71-5.9-4.1-4.99-3.19-3.5c0.9,1.46,0.97,3.29,0.2,4.82
					c-0.97,1.97-2.02,3.95-3.03,5.86l-0.5,0.95C-6.7,8.5-7.05,8.76-7.46,8.83H-7.47 M-7.52-4.98c-2.24,0.01-4.05,1.84-4.04,4.09
					c0,0.61,0.14,1.21,0.41,1.75c0.94,1.92,1.96,3.84,2.94,5.7C-8,6.94-7.8,7.32-7.6,7.7c0.03,0.06,0.07,0.11,0.12,0.15
					c0.05-0.05,0.1-0.11,0.13-0.17l0.5-0.95C-5.84,4.83-4.8,2.86-3.83,0.9c0.63-1.25,0.57-2.73-0.16-3.92
					c-0.74-1.21-2.05-1.95-3.47-1.96L-7.52-4.98 M-7.48,1.52C-8.87,1.52-10,0.4-10-0.99c0-1.39,1.12-2.52,2.51-2.52h0.01
					c1.38,0,2.5,1.12,2.5,2.5C-4.97,0.38-6.08,1.51-7.48,1.52L-7.48,1.52 M-7.48-2.58L-7.48-2.58c-0.88,0.01-1.58,0.72-1.58,1.59
					c0.02,0.87,0.72,1.57,1.58,1.58h0.01c0.88-0.01,1.58-0.73,1.57-1.6c0-0.42-0.17-0.81-0.47-1.11C-6.67-2.41-7.07-2.58-7.48-2.58"
					/>
			</g>
		</g>
	</g>
</g>
</svg>
