<?xml version="1.0" encoding="utf-8"?>
<!-- Generator: Adobe Illustrator 26.0.0, SVG Export Plug-In . SVG Version: 6.00 Build 0)  -->
<svg version="1.1" id="Layer_1" xmlns="http://www.w3.org/2000/svg" xmlns:xlink="http://www.w3.org/1999/xlink" x="0px" y="0px"
	 viewBox="0 0 100 100" style="enable-background:new 0 0 100 100;" xml:space="preserve">
<g>
	<defs>
		<rect id="SVGID_1_" x="2.16" y="5.63" width="95.68" height="88.73"/>
	</defs>
	<clipPath id="SVGID_00000057830729437855623690000014704095106983919257_">
		<use xlink:href="#SVGID_1_"  style="overflow:visible;"/>
	</clipPath>
	<g id="Group_666" style="clip-path:url(#SVGID_00000057830729437855623690000014704095106983919257_);">
		<path id="Path_1287" class="st1" d="M8.74,81.44c-0.18-1.23-0.14-2.48,0.1-3.7c0.49-1,1.35-1.77,2.4-2.13
			c1.21-0.28,2.47-0.3,3.7-0.06c2.51,0.31,3.36-0.56,3.32-3.2C18.11,61.8,18.2,51.25,18.2,40.7v-3.36h12.62v3.12
			c0,10.64,0.07,21.28-0.05,31.92c0,2.4,0.53,3.41,3.07,3.2c2.39-0.18,4.79-0.18,7.17,0c2.23,0.14,2.88-0.71,2.87-2.89
			c-0.09-10.82-0.04-21.63-0.04-32.45c0-0.96,0-1.91,0-3h12.43v2.93c0,10.64,0,21.28,0,31.92c0,3.44,0,3.44,3.55,3.44
			c2.31,0,4.61-0.1,6.92,0.03c1.99,0.11,2.58-0.6,2.57-2.6c-0.08-10.82-0.04-21.63-0.04-32.45v-3.25h12.49
			c0.05,1.08,0.14,2.1,0.14,3.13c0,10.82,0.06,21.63-0.04,32.45c0,2.13,0.67,2.94,2.73,2.7c0.62-0.04,1.24-0.04,1.86,0
			c5.04,0,5.52,0.6,4.65,5.91H8.74z"/>
		<path id="Path_1288" class="st1" d="M50.02,33.69c-12.5,0-25-0.04-37.49,0.04c-2.43,0-3.97-0.48-3.85-3.32
			c0.1-2.4-1.84-1.66-3.08-1.71c-3.22-0.13-3.8-0.6-3.27-3.73c0.24-0.98,0.9-1.8,1.8-2.24C18.9,17.02,33.7,11.4,48.54,5.85
			c1.09-0.32,2.25-0.28,3.3,0.13c14.67,5.49,29.29,11.11,43.97,16.57c2.55,0.95,2.01,2.81,1.93,4.57c-0.1,2.08-1.84,1.56-3.05,1.52
			c-2.08-0.06-3.61,0.04-3.41,2.9c0.14,2.02-1.61,2.18-3.23,2.17c-11.88,0-23.75,0-35.63,0h-2.4"/>
		<path id="Path_1289" class="st1" d="M49.99,94.29c-14.44,0-28.89,0-43.33,0c-1.96,0-4.49,0.86-4.45-2.76
			c0.05-4.01,1.51-6.24,4.69-6.48c0.6-0.05,1.24,0,1.86,0h82.68c4.81,0,6.33,1.63,6.39,6.35c0,2.16-0.68,3-2.91,2.96
			c-6.74-0.1-13.47-0.04-20.21-0.04H49.99"/>
	</g>
</g>
</svg>
