<?xml version="1.0" encoding="utf-8"?>
<!-- Generator: Adobe Illustrator 26.0.0, SVG Export Plug-In . SVG Version: 6.00 Build 0)  -->
<svg version="1.1" id="Layer_1" xmlns="http://www.w3.org/2000/svg" xmlns:xlink="http://www.w3.org/1999/xlink" x="0px" y="0px"
	 viewBox="0 0 48.8 51.4" style="enable-background:new 0 0 48.8 51.4;" xml:space="preserve">

<g id="Group_373" transform="translate(219.311 488.826)">
	<g>
		<g>
			<defs>
				<rect id="SVGID_1_" x="-218.9" y="-488.5" width="48.4" height="50.7"/>
			</defs>
			<clipPath id="SVGID_00000165223600244046928910000012200288406377129600_">
				<use xlink:href="#SVGID_1_"  style="overflow:visible;"/>
			</clipPath>
			<g id="Group_331" style="clip-path:url(#SVGID_00000165223600244046928910000012200288406377129600_);">
				<path id="Path_680" class="st1" d="M-176.9-447.2h-42c0-1.3,0-2.5,0-3.8c0-0.2,0.1-0.5,0.3-0.7c0.1-0.2,0.3-0.3,0.5-0.4
					c2.8-1.1,4.4-4.2,3.6-7.1c-0.2-2.8-0.2-5.6,0-8.3c0.1-6.1,3.6-11.7,9.1-14.5c0.7-0.3,1.2-1,1.4-1.7c0.7-2.7,3.2-4.7,6-4.8
					c2.9-0.1,5.5,1.7,6.4,4.4c0.2,0.5,0.6,0.9,1.1,1.2c0.8,0.4,1.6,0.8,2.3,1.2c-4.2,3.3-5.8,9-3.8,13.9c1.8,5,6.7,8.1,12,7.7v3.1
					h-1.6c-7.1,0-14.1,0-21.1,0c-1,0-2.4-0.3-2.4,1.2c0,1.5,1.4,1.3,2.3,1.3c7.3,0,14.5,0,21.8,0c0.7,0,1.4,0.3,1.9,0.8
					C-176.6-451.3-176.6-451.3-176.9-447.2 M-210.2-466.4c0.2,0.2,0.6,1,1.1,1.1c1,0.2,1.4-0.6,1.4-1.5c0.2-5.4,4.5-9.7,9.8-10
					c0.9,0,1.8-0.3,1.6-1.4c-0.1-1-0.9-1.1-1.8-1.1C-204.8-478.8-210.2-473.2-210.2-466.4 M-201.3-483.9l6.7-0.3
					c-0.7-1.2-2-1.9-3.4-1.8C-199.4-486.1-200.7-485.2-201.3-483.9"/>
				<path id="Path_681" class="st1" d="M-180.8-461.8c-5.7-0.1-10.2-4.6-10.4-10.2c0-5.7,4.6-10.4,10.3-10.5h0.1
					c5.7,0.2,10.2,5,10,10.7C-171-466.4-175.4-462-180.8-461.8L-180.8-461.8"/>
				<path id="Path_682" class="st1" d="M-204.9-444.8h14.1c0.1,2.3-1.1,4.6-3.1,5.8c-2.2,1.6-5.1,1.7-7.4,0.3
					C-203.6-439.9-205-442.3-204.9-444.8"/>
			</g>
		</g>
	</g>
</g>
</svg>
