<?xml version="1.0" encoding="utf-8"?>
<!-- Generator: Adobe Illustrator 26.0.0, SVG Export Plug-In . SVG Version: 6.00 Build 0)  -->
<svg version="1.1" id="Layer_1" xmlns="http://www.w3.org/2000/svg" xmlns:xlink="http://www.w3.org/1999/xlink" x="0px" y="0px"
	 viewBox="0 0 51.4 51.4" style="enable-background:new 0 0 51.4 51.4;" xml:space="preserve">

<g id="Group_320" transform="translate(26.683 298.326)">
	<g>
		<g>
			<defs>
				<rect id="SVGID_1_" x="-26.2" y="-297.8" width="50.4" height="50.3"/>
			</defs>
			<clipPath id="SVGID_00000034082711921989983350000014950365076708729532_">
				<use xlink:href="#SVGID_1_"  style="overflow:visible;"/>
			</clipPath>
			<g id="Group_319" style="clip-path:url(#SVGID_00000034082711921989983350000014950365076708729532_);">
				<path id="Path_645" class="st1" d="M-20.3-256.3l-4.6,4.7v-14.4h14.3l-5,4.6c4.8,6.3,13.1,8.8,20.6,6.3
					c4.3-1.4,7.8-4.3,10.1-8.2c2.3-3.8,3.1-8.3,2.4-12.7h6.5c1.3,10-3.4,19.8-12,24.9C1.3-244.8-12.2-247-20.3-256.3"/>
				<path id="Path_646" class="st1" d="M-19.4-269.4h-6.4c-1.4-9.8,3.1-19.4,11.5-24.6c10.6-6.5,24.3-4.4,32.5,4.9l4.7-4.8v14.5h-14
					l4.7-4.6c-4.8-6.3-13-8.8-20.5-6.4C-15.6-287.3-20.9-278.5-19.4-269.4"/>
			</g>
		</g>
	</g>
</g>
</svg>
