<?xml version="1.0" encoding="utf-8"?>
<!-- Generator: Adobe Illustrator 26.0.0, SVG Export Plug-In . SVG Version: 6.00 Build 0)  -->
<svg version="1.1" id="Layer_1" xmlns="http://www.w3.org/2000/svg" xmlns:xlink="http://www.w3.org/1999/xlink" x="0px" y="0px"
	 viewBox="0 0 100 100" style="enable-background:new 0 0 100 100;" xml:space="preserve">

<g>
	<defs>
		<rect id="SVGID_1_" x="5.53" y="1.26" width="88.93" height="97.49"/>
	</defs>
	<clipPath id="SVGID_00000116921661973383017070000008119370433633095611_">
		<use xlink:href="#SVGID_1_"  style="overflow:visible;"/>
	</clipPath>
	<g id="Group_453" style="clip-path:url(#SVGID_00000116921661973383017070000008119370433633095611_);">
		<path id="Path_725" class="st1" d="M76.4,30.57c0-3.39-1.48-4.84-4.89-4.85c-4.94,0-9.89,0-14.82,0c-2.28,0.3-4.37-1.3-4.68-3.58
			c-0.05-0.37-0.05-0.74,0-1.1c-0.02-4.82,0-9.63,0-14.43c0-3.72-1.47-5.19-5.16-5.19c-12.42,0-24.85,0-37.27,0
			C6.23,1.39,5.53,2.08,5.53,5.37c0,29.78,0,59.56,0,89.34c0,3.35,0.67,4.03,3.95,4.03h54.73V81.66c-1.64,0-3.08,0.07-4.52,0
			c-2.5,0.04-4.56-1.95-4.6-4.45c-0.01-0.74,0.16-1.48,0.5-2.14c0.33-0.75,0.75-1.47,1.24-2.12c5.22-7.02,10.42-14.04,15.73-20.98
			c1.17-1.19,2.46-2.26,3.84-3.19c0-5.65,0-11.92,0-18.19 M11.65,18.13c0.34-0.33,0.79-0.52,1.26-0.52h30.81
			c0.99,0,1.79,0.8,1.79,1.79c0,0.99-0.8,1.79-1.79,1.79H12.91c-0.99,0-1.79-0.81-1.79-1.79C11.13,18.92,11.32,18.47,11.65,18.13
			 M11.65,28.66c0.34-0.33,0.79-0.52,1.26-0.52h30.81c0.99,0,1.79,0.8,1.79,1.79c0,0.99-0.8,1.79-1.79,1.79H12.91
			c-0.99,0-1.79-0.81-1.79-1.79C11.13,29.45,11.32,29,11.65,28.66 M37.83,83.87c-0.34,0.33-0.79,0.52-1.26,0.52H12.92
			c-0.99,0-1.79-0.8-1.79-1.79c0-0.99,0.8-1.79,1.79-1.79h23.65c0.99,0,1.79,0.81,1.79,1.79C38.35,83.08,38.17,83.54,37.83,83.87
			 M49.66,73.34c-0.34,0.33-0.79,0.52-1.26,0.52H12.91c-0.99,0-1.79-0.8-1.79-1.79s0.8-1.79,1.79-1.79H48.4
			c0.99,0,1.79,0.81,1.79,1.79C50.18,72.56,49.99,73.01,49.66,73.34 M56.54,62.81c-0.34,0.33-0.79,0.52-1.26,0.52H12.92
			c-0.99,0-1.79-0.8-1.79-1.79c0-0.99,0.8-1.79,1.79-1.79h42.35c0.99,0,1.79,0.81,1.79,1.79C57.06,62.03,56.87,62.48,56.54,62.81
			 M64.24,52.29c-0.34,0.33-0.79,0.52-1.26,0.52H12.92c-0.99,0-1.79-0.8-1.79-1.79c0-0.99,0.8-1.79,1.79-1.79h50.05
			c0.99,0,1.79,0.81,1.79,1.79C64.75,51.5,64.57,51.95,64.24,52.29 M64.23,41.76c-0.34,0.33-0.79,0.52-1.26,0.52H12.92
			c-0.99,0-1.79-0.8-1.79-1.79c0-0.99,0.8-1.79,1.79-1.79h50.05c0.99,0,1.79,0.81,1.79,1.79C64.75,40.97,64.57,41.42,64.23,41.76"/>
		<path id="Path_726" class="st1" d="M85.51,78.63c0,5.69,0,11.13,0,16.56c0,3.37-0.18,3.54-3.54,3.55c-3.99,0-7.99,0-11.98,0
			c-2.14,0-2.73-0.56-2.73-2.69c0-5.7,0-11.4,0-17.42c-2.21,0-4.34,0.07-6.46-0.04c-0.81-0.04-2.07-0.29-2.27-0.78
			c-0.22-0.88-0.05-1.81,0.47-2.55c5.27-7.21,10.63-14.36,15.96-21.53c0.96-1.29,1.91-1.33,2.88-0.02
			c5.37,7.22,10.76,14.43,16.07,21.69c0.49,0.7,0.66,1.57,0.46,2.4c-0.19,0.48-1.35,0.78-2.1,0.81c-2.14,0.11-4.29,0.04-6.75,0.04"
			/>
		<path id="Path_727" class="st1" d="M53.4,1.26c0.88,0.46,1.71,1,2.48,1.63c6.26,6.2,12.48,12.44,18.68,18.72
			c0.68,0.81,1.29,1.67,1.83,2.59c-1.69-0.34-3.41-0.58-5.13-0.71c-4.5-0.1-9-0.02-13.5-0.04c-2.54,0-3.46-0.92-3.47-3.41
			c0-4.75,0.05-9.51-0.04-14.26C54.09,4.25,53.8,2.74,53.4,1.26"/>
	</g>
</g>
</svg>
