<?xml version="1.0" encoding="utf-8"?>
<!-- Generator: Adobe Illustrator 26.0.0, SVG Export Plug-In . SVG Version: 6.00 Build 0)  -->
<svg version="1.1" id="Layer_1" xmlns="http://www.w3.org/2000/svg" xmlns:xlink="http://www.w3.org/1999/xlink" x="0px" y="0px"
	 viewBox="0 0 84 73" style="enable-background:new 0 0 84 73;" xml:space="preserve">

<g>
	<defs>
		<rect id="SVGID_1_" x="7.99" y="2.5" width="68.01" height="68"/>
	</defs>
	<clipPath id="SVGID_00000137108994664731007420000008966413651962674837_">
		<use xlink:href="#SVGID_1_"  style="overflow:visible;"/>
	</clipPath>
	<g id="Group_497" style="clip-path:url(#SVGID_00000137108994664731007420000008966413651962674837_);">
		<path id="Path_740" class="st1" d="M15.29,19.41c0-3.14-0.01-6.17,0-9.2c-0.23-4.02,2.84-7.46,6.86-7.69
			c0.29-0.02,0.58-0.02,0.87,0C33.93,2.51,44.85,2.53,55.78,2.5c1.17-0.04,2.29,0.43,3.08,1.29c2.86,2.93,5.83,5.75,8.63,8.73
			c0.69,0.77,1.09,1.75,1.15,2.78c0.1,6.22,0.05,12.43,0.05,18.75c0.46,0.13,0.88,0.25,1.31,0.38c3.46,1.04,5.86,4.18,5.95,7.78
			c0.06,6.32,0.09,12.64,0,18.96c-0.13,5.11-4.27,9.21-9.39,9.28c-17.14,0.05-34.28,0.05-51.42,0c-3.94-0.01-7.13-3.22-7.11-7.16
			c0-0.01,0-0.03,0-0.04c-0.04-12.19-0.04-24.37,0-36.56C8.04,22.77,10.7,20.13,15.29,19.41 M61.41,60.7
			c1.91-0.38,2.42-1.02,2.42-2.97c0.01-13.14,0.01-26.28,0-39.42c0-0.38-0.07-0.77-0.11-1.23h-5.99c-2.96,0-3.6-0.65-3.6-3.67
			c0-2,0-3.99,0-6.04H31.75c-2.98,0-5.96-0.02-8.94,0.01c-1.51,0.01-2.58,0.83-2.61,2.18c-0.08,3.27-0.03,6.54-0.03,9.94
			c2,0,3.86,0.01,5.71,0c1.99-0.05,3.92,0.71,5.36,2.09c1.33,1.24,2.72,2.42,4,3.72c0.97,1.04,2.36,1.59,3.78,1.51
			c4.65-0.09,9.3-0.03,13.95-0.03c5.68,0,8.45,2.78,8.45,8.47C61.42,43.7,61.42,52.14,61.41,60.7 M37.13,47.4
			c1.97,1.48,3.25,1.55,4.25,0.39s0.76-2.44-0.76-3.95c-1.32-1.33-2.63-2.66-3.98-3.96s-2.53-1.3-3.85-0.03
			c-1.53,1.47-3.03,2.97-4.5,4.5c-1,0.89-1.1,2.42-0.21,3.42c0.89,1,2.42,1.1,3.42,0.21c0.19-0.13,0.36-0.29,0.77-0.62
			c0,2.83-0.01,5.38,0,7.94c0.01,1.92,0.89,3.03,2.4,3.05s2.44-1.1,2.45-3C37.14,52.77,37.13,50.21,37.13,47.4"/>
	</g>
</g>
</svg>
