<?xml version="1.0" encoding="utf-8"?>
<!-- Generator: Adobe Illustrator 26.0.0, SVG Export Plug-In . SVG Version: 6.00 Build 0)  -->
<svg version="1.1" id="Layer_1" xmlns="http://www.w3.org/2000/svg" xmlns:xlink="http://www.w3.org/1999/xlink" x="0px" y="0px"
	 viewBox="0 0 51.4 49.2" style="enable-background:new 0 0 51.4 49.2;" xml:space="preserve">
<g id="Group_315" transform="translate(134.311 142.826)">
	<g>
		<g>
			<defs>
				<rect id="SVGID_1_" x="-134" y="-142.1" width="50.7" height="47.9"/>
			</defs>
			<clipPath id="SVGID_00000158743944594492498040000007224107248417871513_">
				<use xlink:href="#SVGID_1_"  style="overflow:visible;"/>
			</clipPath>
			<g id="Group_314" style="clip-path:url(#SVGID_00000158743944594492498040000007224107248417871513_);">
				<path id="Path_639" class="st1" d="M-115.6-111.4v-3h-6.2v3c-0.6,0.1-1.2,0-1.8-0.1c-5-1.3-8.9-5.3-9.9-10.4
					c-0.2-1-0.3-2-0.3-3.1c0-1.4,0-2.8,0-4.2c0-1.2,0.9-2.3,2.2-2.3c0,0,0.1,0,0.1,0h46.2c1.2,0,2.3,1,2.3,2.2c0,0,0,0.1,0,0.1
					c0,1.5,0,3,0,4.5c-0.1,6.2-4.3,11.6-10.3,13.2c-0.6,0.1-1.2,0.2-1.8,0.2v-3h-6.2v3L-115.6-111.4z"/>
				<path id="Path_640" class="st1" d="M-133.9-117.1c1.2,2.3,3,4.2,5.1,5.6c2,1.5,4.5,2.4,7,2.4v4.8h6.2v-4.8h14.1v4.8h6.2v-4.9
					c0.5,0,0.9,0,1.3,0c1.9-0.3,3.7-1,5.3-2.1c2.2-1.4,4.1-3.3,5.3-5.6c0-0.1,0.1-0.1,0.1-0.2c0,0.1,0,0.2,0,0.3
					c0,6.8,0,13.5,0,20.3c0,1.2-1,2.2-2.2,2.2h-46.3c-1.2,0-2.2-1-2.2-2.2c0-6.8,0-13.7,0-20.5C-133.9-117-133.9-117-133.9-117.1"/>
				<path id="Path_641" class="st1" d="M-118.5-139.8v6.7h-2.3v-0.4c0-2.1,0-4.2,0-6.4c0-1.2,0.9-2.3,2.2-2.3c0,0,0.1,0,0.1,0h19.7
					c1.2,0,2.2,0.9,2.3,2.1c0,2.3,0,4.5,0,6.7c0,0,0,0.1,0,0.1h-2.2v-6.7H-118.5z"/>
				<rect id="Rectangle_277" x="-120.4" y="-112.4" class="st1" width="3.3" height="6.5"/>
				<rect id="Rectangle_278" x="-100.1" y="-112.4" class="st1" width="3.3" height="6.5"/>
			</g>
		</g>
	</g>
</g>
</svg>
